<svg width="150" height="24" viewBox="0 0 150 24" fill="none" xmlns="http://www.w3.org/2000/svg">
<path d="M140.827 23.8117C139.139 23.8117 137.741 23.4648 136.633 22.7708C135.525 22.0696 134.745 21.0793 134.295 19.7999C133.851 18.5132 133.776 16.9916 134.069 15.235C134.355 13.5219 134.931 12.0183 135.796 10.7244C136.669 9.43049 137.763 8.4221 139.078 7.69924C140.394 6.97639 141.86 6.61496 143.476 6.61496C144.563 6.61496 145.546 6.79206 146.426 7.14626C147.312 7.49323 148.049 8.02092 148.635 8.72931C149.221 9.43049 149.622 10.3088 149.836 11.3641C150.058 12.4195 150.055 13.6556 149.826 15.0724L149.622 16.341H135.721L136.161 13.4785L145.771 13.4785C145.879 12.8135 145.836 12.2243 145.643 11.7111C145.45 11.1979 145.128 10.7967 144.677 10.5075C144.227 10.2112 143.673 10.063 143.015 10.063C142.343 10.063 141.713 10.2292 141.127 10.5618C140.541 10.8943 140.047 11.3316 139.647 11.8737C139.254 12.4087 139 12.9906 138.885 13.6194L138.381 16.4603C138.238 17.3349 138.267 18.0614 138.467 18.6397C138.674 19.218 139.032 19.6517 139.54 19.9408C140.047 20.2227 140.691 20.3637 141.47 20.3637C141.978 20.3637 142.453 20.2914 142.897 20.1468C143.347 20.0023 143.748 19.789 144.098 19.5071C144.448 19.218 144.735 18.8602 144.956 18.4337L149.129 18.7156C148.742 19.742 148.156 20.6384 147.369 21.4046C146.583 22.1636 145.635 22.7564 144.527 23.1828C143.426 23.6021 142.192 23.8117 140.827 23.8117Z" fill="#31B15C"/>
<path d="M136.717 6.83054L128.211 23.4852H123.063L120.049 6.83054L124.704 6.83054L126.163 18.7468H126.334L131.708 6.83054L136.717 6.83054Z" fill="#31B15C"/>
<path d="M108.751 23.8009C107.707 23.8009 106.803 23.6166 106.038 23.2479C105.28 22.872 104.722 22.3154 104.364 21.5781C104.007 20.8408 103.918 19.9264 104.096 18.8349C104.254 17.9096 104.55 17.1361 104.987 16.5145C105.43 15.8856 105.97 15.3796 106.606 14.9965C107.243 14.6134 107.947 14.3206 108.719 14.1182C109.499 13.9158 110.303 13.7785 111.132 13.7062C112.091 13.605 112.87 13.5074 113.471 13.4134C114.079 13.3195 114.533 13.1857 114.833 13.0122C115.133 12.8315 115.316 12.5641 115.38 12.2099V12.1448C115.487 11.4653 115.362 10.9376 115.005 10.5618C114.654 10.1786 114.093 9.98709 113.321 9.98709C112.505 9.98709 111.812 10.1678 111.24 10.5292C110.675 10.8907 110.271 11.3497 110.028 11.9063L105.866 11.5593C106.238 10.5473 106.799 9.67264 107.55 8.93533C108.308 8.19079 109.22 7.61973 110.285 7.22216C111.351 6.81736 112.545 6.61496 113.868 6.61496C114.783 6.61496 115.637 6.72339 116.431 6.94024C117.232 7.1571 117.922 7.49323 118.501 7.94863C119.087 8.40403 119.509 8.98954 119.767 9.70517C120.031 10.4136 120.085 11.2629 119.928 12.2532L118.072 23.4864L113.739 23.4864L114.125 21.1769H113.996C113.646 21.6974 113.217 22.1564 112.709 22.554C112.201 22.9443 111.619 23.2515 110.961 23.4756C110.303 23.6925 109.567 23.8009 108.751 23.8009ZM110.585 20.6131C111.25 20.6131 111.862 20.4794 112.42 20.2119C112.984 19.9372 113.449 19.5686 113.814 19.1059C114.186 18.6433 114.422 18.1192 114.522 17.5337L114.801 15.7663C114.658 15.8603 114.45 15.9434 114.179 16.0157C113.914 16.088 113.624 16.1567 113.31 16.2217C113.002 16.2796 112.691 16.3338 112.377 16.3844C112.062 16.4277 111.78 16.4711 111.529 16.5145C110.979 16.594 110.485 16.7205 110.049 16.894C109.613 17.0675 109.259 17.3024 108.987 17.5988C108.716 17.8879 108.548 18.2493 108.483 18.6831C108.383 19.3119 108.53 19.7926 108.923 20.1252C109.323 20.4504 109.878 20.6131 110.585 20.6131Z" fill="#31B15C"/>
<path d="M84.0725 23.4852L82.335 6.83054L86.9578 6.83054L87.6657 18.0204H87.8159L92.3207 6.83054L96.8577 6.83054L97.7158 17.9553H97.8552L102.21 6.83054H106.822L99.6035 23.4852H94.7662L93.6507 13.011H93.4469L88.8992 23.4852H84.0725Z" fill="#31B15C"/>
<path d="M72.7405 23.8117C71.053 23.8117 69.6551 23.4648 68.5467 22.7708C67.4384 22.0696 66.659 21.0793 66.2085 19.7999C65.7652 18.5132 65.6901 16.9916 65.9833 15.235C66.2693 13.5219 66.8449 12.0183 67.7101 10.7244C68.5825 9.43049 69.6765 8.4221 70.9922 7.69924C72.3079 6.97639 73.7738 6.61496 75.3898 6.61496C76.4767 6.61496 77.4599 6.79206 78.3394 7.14626C79.2261 7.49323 79.9626 8.02092 80.549 8.72931C81.1353 9.43049 81.5357 10.3088 81.7502 11.3641C81.9719 12.4195 81.9683 13.6556 81.7395 15.0724L81.5357 16.341H67.6351L68.0748 13.4785L77.6852 13.4785C77.7924 12.8135 77.7495 12.2243 77.5564 11.7111C77.3634 11.1979 77.0416 10.7967 76.5911 10.5075C76.1406 10.2112 75.5865 10.063 74.9286 10.063C74.2565 10.063 73.6272 10.2292 73.0409 10.5618C72.4545 10.8943 71.9611 11.3316 71.5607 11.8737C71.1674 12.4087 70.9136 12.9906 70.7992 13.6194L70.2951 16.4603C70.152 17.3349 70.1807 18.0614 70.3809 18.6397C70.5882 19.218 70.9458 19.6517 71.4535 19.9408C71.9611 20.2227 72.6047 20.3637 73.3841 20.3637C73.8918 20.3637 74.3673 20.2914 74.8106 20.1468C75.2611 20.0023 75.6616 19.789 76.0119 19.5071C76.3623 19.218 76.6483 18.8602 76.87 18.4337L81.0423 18.7156C80.6562 19.742 80.0699 20.6384 79.2833 21.4046C78.4967 22.1636 77.5493 22.7564 76.441 23.1828C75.3398 23.6021 74.1063 23.8117 72.7405 23.8117Z" fill="#31B15C"/>
<path d="M55.7131 18.6922L56.6248 13.1515H57.2898L63.6287 6.83015L68.8737 6.83015L60.4217 15.2008H59.3277L55.7131 18.6922ZM50.7899 23.4848L54.4367 1.27861L59.0059 1.27861L55.3591 23.4848H50.7899ZM61.0867 23.4848L57.4399 16.2309L61.0116 12.9672L66.4389 23.4848L61.0867 23.4848Z" fill="#31B15C"/>
<path d="M44.9773 23.4855L47.7231 6.83089L52.2923 6.83089L49.5465 23.4855H44.9773ZM50.4796 4.66232C49.8003 4.66232 49.239 4.43462 48.7957 3.97922C48.3595 3.51659 48.1807 2.96722 48.2594 2.33111C48.3381 1.68054 48.6455 1.13117 49.1818 0.682994C49.7181 0.227593 50.3259 -0.000106812 51.0052 -0.000106812C51.6845 -0.000106812 52.2387 0.227593 52.6677 0.682994C53.0967 1.13117 53.2755 1.68054 53.204 2.33111C53.1325 2.96722 52.8286 3.51659 52.2923 3.97922C51.7632 4.43462 51.1589 4.66232 50.4796 4.66232Z" fill="#31B15C"/>
<path d="M28.2771 23.4848L31.9239 1.27861L36.4931 1.27861L35.1416 9.62761H35.2703C35.5421 9.17944 35.9067 8.72404 36.3644 8.26141C36.8292 7.79155 37.3976 7.40121 38.0698 7.09038C38.7419 6.77232 39.5392 6.6133 40.4616 6.6133C41.6629 6.6133 42.7176 6.93135 43.6258 7.56747C44.5339 8.19635 45.1882 9.14691 45.5886 10.4191C45.989 11.6841 46.0319 13.2708 45.7173 15.1792C45.417 17.0369 44.8628 18.6055 44.0548 19.885C43.2539 21.1572 42.2922 22.1222 41.1695 22.78C40.0541 23.4306 38.8706 23.7558 37.6193 23.7558C36.7326 23.7558 36.0033 23.6077 35.4312 23.3113C34.8663 23.0149 34.4266 22.6426 34.112 22.1945C33.7973 21.7391 33.5721 21.2801 33.4362 20.8174H33.211L32.7819 23.4848H28.2771ZM34.1227 15.1575C33.9654 16.1478 33.9618 17.0116 34.112 17.7489C34.2693 18.4862 34.5696 19.0609 35.0129 19.4729C35.4634 19.8777 36.0533 20.0801 36.7827 20.0801C37.5335 20.0801 38.1985 19.8741 38.7777 19.4621C39.364 19.0428 39.8503 18.4645 40.2364 17.7272C40.6225 16.9827 40.8943 16.1261 41.0516 15.1575C41.2017 14.1961 41.2053 13.3503 41.0623 12.6202C40.9193 11.8902 40.6261 11.3191 40.1828 10.9071C39.7394 10.495 39.1388 10.289 38.3808 10.289C37.6443 10.289 36.9829 10.4878 36.3966 10.8854C35.8174 11.283 35.3311 11.8468 34.9378 12.5769C34.5517 13.307 34.28 14.1672 34.1227 15.1575Z" fill="#31B15C"/>
<path d="M23.4967 16.3774C23.4967 19.4598 20.998 21.9585 17.9156 21.9585C14.8333 21.9585 12.3346 19.4598 12.3346 16.3774C12.3346 13.2951 14.8333 10.7964 17.9156 10.7964C20.998 10.7964 23.4967 13.2951 23.4967 16.3774Z" fill="#31B15C"/>
<path fill-rule="evenodd" clip-rule="evenodd" d="M11.1853 2.61282C11.5098 2.05674 12.1021 1.71394 12.7437 1.71394H26.7687C30.0164 1.71394 32.6439 4.37456 32.6439 7.64995V10.0087C32.6439 12.5976 30.4944 14.6626 27.9289 14.5242C25.314 14.3832 23.2702 12.1998 23.2702 9.55985V8.266C23.2702 7.26098 24.077 6.44086 25.0788 6.44086C26.0807 6.44086 26.8874 7.26098 26.8874 8.266V9.55985C26.8874 10.2649 27.4325 10.8419 28.1219 10.8791C28.6104 10.9055 29.0267 10.5115 29.0267 10.0087V7.64995C29.0267 6.3846 28.0128 5.36422 26.7687 5.36422H16.8521C16.3811 5.36422 16.0821 5.86847 16.3079 6.28171L24.3221 20.9463C24.8032 21.8267 24.4885 22.9363 23.6141 23.4246C22.7378 23.914 21.6367 23.5913 21.1546 22.7091L11.1599 4.42049C10.8513 3.85576 10.8609 3.16856 11.1853 2.61282ZM1.50645 7.54086C0.674461 7.54086 0 8.24919 0 9.12296C0 9.99673 0.674461 10.7051 1.50645 10.7051L10.2313 10.7051C11.0633 10.7051 11.7378 9.99673 11.7378 9.12296C11.7378 8.24919 11.0633 7.54086 10.2313 7.54086L1.50645 7.54086ZM4.13893 12.2438C3.30694 12.2438 2.63248 12.9521 2.63248 13.8259C2.63248 14.6997 3.30694 15.408 4.13893 15.408H12.8638C13.6958 15.408 14.3702 14.6997 14.3702 13.8259C14.3702 12.9521 13.6958 12.2438 12.8638 12.2438L4.13893 12.2438ZM5.26496 18.5652C5.26496 17.6914 5.93942 16.9831 6.77141 16.9831L15.4963 16.9831C16.3283 16.9831 17.0027 17.6914 17.0027 18.5652C17.0027 19.439 16.3283 20.1473 15.4963 20.1473H6.77141C5.93942 20.1473 5.26496 19.439 5.26496 18.5652Z" fill="#102224"/>
</svg>
