<svg width="356" height="219" viewBox="0 0 356 219" fill="none" xmlns="http://www.w3.org/2000/svg">
<path fill-rule="evenodd" clip-rule="evenodd" d="M70 95.9507C99.2983 95.9507 123.049 119.702 123.049 149C123.049 178.298 99.2983 202.049 70 202.049C40.7017 202.049 16.9507 178.298 16.9507 149C16.9507 119.702 40.7017 95.9507 70 95.9507ZM140 149C140 110.34 108.66 79 70 79C31.3401 79 4.69599e-06 110.34 4.69599e-06 149C4.69599e-06 187.66 31.3401 219 70 219C108.66 219 140 187.66 140 149Z" fill="white"/>
<path fill-rule="evenodd" clip-rule="evenodd" d="M178 131.96C184.649 131.96 190.04 137.351 190.04 144C190.04 150.649 184.649 156.04 178 156.04C171.351 156.04 165.96 150.649 165.96 144C165.96 137.351 171.351 131.96 178 131.96ZM207 144C207 127.984 194.016 115 178 115C161.984 115 149 127.984 149 144C149 160.016 161.984 173 178 173C194.016 173 207 160.016 207 144Z" fill="white"/>
<path fill-rule="evenodd" clip-rule="evenodd" d="M286 95.9507C315.298 95.9507 339.049 119.702 339.049 149C339.049 178.298 315.298 202.049 286 202.049C256.702 202.049 232.951 178.298 232.951 149C232.951 119.702 256.702 95.9507 286 95.9507ZM356 149C356 110.34 324.66 79 286 79C247.34 79 216 110.34 216 149C216 187.66 247.34 219 286 219C324.66 219 356 187.66 356 149Z" fill="white"/>
<path fill-rule="evenodd" clip-rule="evenodd" d="M80.391 0.905819C66.5995 -3.69227 53.7841 10.0401 59.3193 23.4853L70.2326 49.9945C72.018 54.3313 76.9804 56.3993 81.3164 54.6136C85.6523 52.8278 87.72 47.8645 85.9346 43.5277L75.0212 17.0186L96.0155 24.018L62.1917 147.258C60.9504 151.78 63.6098 156.453 68.1317 157.695C72.6536 158.936 77.3256 156.276 78.5669 151.754L112.391 28.5141C114.779 19.811 109.946 10.7593 101.385 7.9053L80.391 0.905819Z" fill="white"/>
<path fill-rule="evenodd" clip-rule="evenodd" d="M200.009 72.1027C197.059 75.7184 197.591 81.0478 201.196 84.0061L267.097 138.082H201.435C196.776 138.082 193 141.869 193 146.541C193 151.213 196.776 155 201.435 155H267.097C282.951 155 290.049 135.056 277.78 124.988L211.878 70.9123C208.273 67.954 202.959 68.4869 200.009 72.1027Z" fill="white"/>
<path fill-rule="evenodd" clip-rule="evenodd" d="M238 26.4753C238 21.7945 234.176 18 229.459 18H185.541C180.824 18 177 21.7945 177 26.4753C177 31.1561 180.824 34.9506 185.541 34.9506H202.417L189.967 148.608C189.457 153.262 192.846 157.444 197.535 157.95C202.225 158.455 206.439 155.093 206.949 150.44L219.6 34.9506H229.459C234.176 34.9506 238 31.1561 238 26.4753Z" fill="white"/>
<path fill-rule="evenodd" clip-rule="evenodd" d="M217 54.4882C217 49.8003 213.202 46 208.516 46H119.001C102.592 46 95.7389 66.983 108.981 76.677L193.241 138.361C197.023 141.13 202.331 140.307 205.098 136.524C207.865 132.74 207.043 127.429 203.261 124.661L119.001 62.9765H208.516C213.202 62.9765 217 59.1762 217 54.4882Z" fill="white"/>
</svg>
