<svg width="258" height="259" viewBox="0 0 258 259" fill="none" xmlns="http://www.w3.org/2000/svg">
<path fill-rule="evenodd" clip-rule="evenodd" d="M129 101.673C113.754 101.673 101.394 114.066 101.394 129.354C101.394 144.642 113.754 157.036 129 157.036C144.246 157.036 156.606 144.642 156.606 129.354C156.606 114.066 144.246 101.673 129 101.673ZM89 129.354C89 107.202 106.909 89.2445 129 89.2445C151.091 89.2445 169 107.202 169 129.354C169 151.506 151.091 169.464 129 169.464C106.909 169.464 89 151.506 89 129.354Z" fill="white"/>
<path fill-rule="evenodd" clip-rule="evenodd" d="M129 104.673C115.418 104.673 104.394 115.715 104.394 129.354C104.394 142.993 115.418 154.036 129 154.036C142.582 154.036 153.606 142.993 153.606 129.354C153.606 115.715 142.582 104.673 129 104.673ZM86 129.354C86 105.553 105.244 86.2445 129 86.2445C152.756 86.2445 172 105.553 172 129.354C172 153.156 152.756 172.464 129 172.464C105.244 172.464 86 153.156 86 129.354ZM101.394 129.354C101.394 114.066 113.754 101.673 129 101.673C144.246 101.673 156.606 114.066 156.606 129.354C156.606 144.642 144.246 157.036 129 157.036C113.754 157.036 101.394 144.642 101.394 129.354ZM129 89.2445C106.909 89.2445 89 107.202 89 129.354C89 151.506 106.909 169.464 129 169.464C151.091 169.464 169 151.506 169 129.354C169 107.202 151.091 89.2445 129 89.2445Z" fill="white"/>
<path fill-rule="evenodd" clip-rule="evenodd" d="M129 12.3195C124.705 12.3195 120.586 14.0304 117.549 17.0758C114.511 20.1213 112.805 24.2518 112.805 28.5588V30.4627L112.805 30.4872C112.786 35.2924 111.366 39.9871 108.72 43.9933C106.074 47.9996 102.318 51.1427 97.9134 53.0356C97.2496 53.3209 96.5416 53.4862 95.8221 53.5249C91.6685 55.0941 87.1595 55.5088 82.7754 54.7117C77.9446 53.8333 73.4869 51.524 69.9772 48.0815L69.9288 48.034L69.2589 47.3617C67.7549 45.8519 65.9664 44.6516 64.0003 43.8344C62.0343 43.0172 59.927 42.5965 57.7987 42.5965C55.6705 42.5965 53.5631 43.0172 51.5971 43.8344C49.631 44.6516 47.8449 45.8494 46.3409 47.3593L46.336 47.3642C44.8303 48.8723 43.6358 50.6633 42.8208 52.6348C42.0058 54.6062 41.5863 56.7194 41.5863 58.8535C41.5863 60.9875 42.0058 63.1007 42.8208 65.0721C43.6358 67.0436 44.8303 68.8346 46.336 70.3428L47.0565 71.0652C50.4896 74.5845 52.7923 79.0547 53.6683 83.8988C54.5326 88.679 53.9682 93.6073 52.0482 98.0645C50.3337 102.628 47.3068 106.579 43.3491 109.418C39.3389 112.294 34.5585 113.894 29.6294 114.009L29.4857 114.011H28.4805C24.1854 114.011 20.0662 115.722 17.0291 118.767C13.9919 121.813 12.2857 125.943 12.2857 130.25C12.2857 134.557 13.9919 138.688 17.0291 141.733C20.0662 144.779 24.1854 146.49 28.4805 146.49H30.4037C35.1957 146.509 39.8775 147.933 43.8728 150.586C47.8589 153.233 50.9882 156.988 52.8773 161.392C54.849 165.888 55.4357 170.873 54.5618 175.706C53.6858 180.55 51.3828 185.02 47.9497 188.539L47.9023 188.588L47.232 189.26C45.7262 190.768 44.5293 192.561 43.7143 194.533C42.8993 196.504 42.4798 198.617 42.4798 200.751C42.4798 202.885 42.8993 204.999 43.7143 206.97C44.5293 208.941 45.7238 210.732 47.2296 212.241L47.2344 212.245C48.7384 213.755 50.5245 214.953 52.4906 215.77C54.4566 216.588 56.564 217.008 58.6922 217.008C60.8204 217.008 62.9278 216.588 64.8939 215.77C66.8599 214.953 68.646 213.755 70.15 212.245L70.8705 211.523C74.3802 208.08 78.8381 205.771 83.6689 204.893C88.436 204.026 93.3508 204.592 97.7958 206.518C102.346 208.237 106.287 211.272 109.118 215.241C111.986 219.262 113.582 224.055 113.697 228.998L113.699 229.142V230.15C113.699 234.457 115.405 238.587 118.442 241.633C121.479 244.678 125.598 246.389 129.894 246.389C134.189 246.389 138.308 244.678 141.345 241.633C144.382 238.587 146.088 234.457 146.088 230.15V228.246L146.088 228.222C146.107 223.416 147.527 218.722 150.173 214.715C152.813 210.718 156.559 207.58 160.952 205.685C165.435 203.709 170.405 203.121 175.225 203.997C180.055 204.875 184.513 207.185 188.023 210.627L188.071 210.675L188.741 211.347C190.245 212.857 192.034 214.057 194 214.874C195.966 215.692 198.073 216.112 200.201 216.112C202.33 216.112 204.437 215.692 206.403 214.874C208.369 214.057 210.155 212.859 211.659 211.349L211.664 211.345C213.17 209.836 214.364 208.045 215.179 206.074C215.994 204.103 216.414 201.989 216.414 199.855C216.414 197.721 215.994 195.608 215.179 193.637C214.364 191.665 213.17 189.874 211.664 188.366L210.943 187.644C207.51 184.124 205.208 179.654 204.332 174.81C203.458 169.977 204.044 164.993 206.015 160.498C207.904 156.094 211.034 152.337 215.021 149.69C219.016 147.037 223.698 145.613 228.49 145.594L228.514 145.594L229.519 145.594C233.815 145.594 237.934 143.883 240.971 140.837C244.008 137.792 245.714 133.661 245.714 129.354C245.714 125.047 244.008 120.917 240.971 117.871C237.934 114.826 233.815 113.115 229.519 113.115H227.621L227.596 113.115C222.804 113.096 218.123 111.672 214.127 109.019C210.132 106.366 206.997 102.599 205.11 98.1824C204.825 97.5167 204.66 96.8069 204.622 96.0854C203.057 91.9204 202.643 87.399 203.438 83.0028C204.314 78.1587 206.617 73.6888 210.05 70.1695L210.098 70.1209L210.768 69.4492C212.274 67.941 213.471 66.1476 214.286 64.1762C215.101 62.2047 215.52 60.0916 215.52 57.9575C215.52 55.8234 215.101 53.7102 214.286 51.7388C213.471 49.7674 212.276 47.9764 210.77 46.4682L210.766 46.4633C209.262 44.9535 207.475 43.7557 205.509 42.9384C203.543 42.1212 201.436 41.7006 199.308 41.7006C197.18 41.7006 195.072 42.1212 193.106 42.9384C191.14 43.7557 189.354 44.9535 187.85 46.4633L187.13 47.1858C183.62 50.6283 179.162 52.9374 174.331 53.8157C169.511 54.6921 164.54 54.1037 160.056 52.1266C155.665 50.2323 151.92 47.0945 149.28 43.0974C146.634 39.0911 145.214 34.3964 145.195 29.5913L145.195 29.5667V28.5588C145.195 24.2518 143.489 20.1213 140.451 17.0758C137.414 14.0304 133.295 12.3195 129 12.3195ZM108.861 8.36467C114.202 3.00886 121.447 0 129 0C136.554 0 143.798 3.00886 149.139 8.36467C154.48 13.7205 157.481 20.9845 157.481 28.5588V29.5528C157.492 31.9516 158.202 34.295 159.523 36.2952C160.846 38.2983 162.724 39.8699 164.926 40.8163L164.987 40.8424C167.233 41.8362 169.724 42.133 172.139 41.6939C174.545 41.2565 176.765 40.1096 178.516 38.4002L179.158 37.757C181.803 35.1017 184.944 32.9952 188.401 31.5581C191.859 30.1209 195.565 29.3811 199.308 29.3811C203.051 29.3811 206.757 30.1209 210.214 31.5581C213.67 32.9944 216.809 35.0992 219.453 37.7522C222.101 40.4045 224.202 43.5542 225.635 47.0212C227.068 50.4882 227.806 54.2044 227.806 57.9575C227.806 61.7106 227.068 65.4268 225.635 68.8938C224.202 72.3597 222.102 75.5086 219.455 78.1604C219.455 78.1612 219.456 78.1596 219.455 78.1604L218.812 78.8055C217.107 80.5618 215.963 82.7885 215.527 85.2007C215.089 87.6228 215.385 90.1208 216.376 92.3728C216.647 92.9887 216.815 93.6438 216.874 94.3118C217.832 96.0967 219.216 97.6224 220.911 98.7476C222.905 100.072 225.242 100.784 227.635 100.796H229.519C237.073 100.796 244.317 103.805 249.658 109.16C254.999 114.516 258 121.78 258 129.354C258 136.929 254.999 144.193 249.658 149.548C244.317 154.904 237.073 157.913 229.519 157.913H228.528C226.136 157.925 223.799 158.637 221.804 159.961C219.807 161.288 218.239 163.171 217.295 165.379L217.27 165.44C216.278 167.692 215.982 170.19 216.42 172.612C216.857 175.024 218 177.251 219.705 179.007L220.346 179.65C222.994 182.302 225.095 185.452 226.528 188.919C227.962 192.386 228.699 196.102 228.699 199.855C228.699 203.608 227.962 207.325 226.528 210.792C225.096 214.258 222.996 217.406 220.349 220.058C217.704 222.712 214.564 224.818 211.108 226.255C207.65 227.692 203.944 228.432 200.201 228.432C196.459 228.432 192.752 227.692 189.295 226.255C185.837 224.818 182.696 222.711 180.051 220.056L179.41 219.413C177.659 217.703 175.438 216.556 173.033 216.119C170.617 215.68 168.126 215.976 165.88 216.97L165.82 216.997C163.618 217.943 161.739 219.514 160.416 221.518C159.095 223.518 158.386 225.861 158.374 228.26V230.15C158.374 237.724 155.373 244.988 150.032 250.344C144.691 255.7 137.447 258.709 129.894 258.709C122.34 258.709 115.096 255.7 109.755 250.344C104.414 244.988 101.413 237.724 101.413 230.15V229.221C101.343 226.773 100.547 224.4 99.1251 222.407C97.691 220.397 95.6868 218.865 93.3731 218.012C93.2516 217.967 93.1316 217.919 93.0132 217.866C90.7674 216.872 88.2762 216.576 85.8608 217.015C83.4551 217.452 81.2344 218.6 79.4829 220.309C79.4758 220.316 79.4688 220.323 79.4617 220.33L78.8422 220.952C76.1971 223.607 73.056 225.714 69.5985 227.151C66.1411 228.588 62.435 229.328 58.6922 229.328C54.9494 229.328 51.2433 228.588 47.7859 227.151C44.3284 225.714 41.1873 223.607 38.5422 220.952C35.8965 218.3 33.7975 215.152 32.3651 211.688C30.9318 208.221 30.1941 204.504 30.1941 200.751C30.1941 196.998 30.9318 193.282 32.3651 189.815C33.7984 186.348 35.899 183.198 38.5471 180.546L39.1885 179.903C40.8932 178.147 42.037 175.92 42.4731 173.508C42.9111 171.086 42.6154 168.588 41.6243 166.336L41.5977 166.276C40.6538 164.067 39.0869 162.184 37.0893 160.857C35.0946 159.533 32.7576 158.821 30.3653 158.809H28.4805C20.927 158.809 13.6829 155.8 8.34175 150.444C3.00062 145.089 0 137.825 0 130.25C0 122.676 3.00062 115.412 8.34175 110.056C13.6829 104.7 20.927 101.692 28.4805 101.692H29.4067C31.8484 101.621 34.2143 100.823 36.202 99.3975C38.2071 97.9594 39.7344 95.9497 40.5854 93.6296C40.63 93.5078 40.6785 93.3875 40.7308 93.2688C41.7219 91.0168 42.0176 88.5187 41.5796 86.0967C41.1435 83.6846 39.9996 81.458 38.2948 79.7017L37.6536 79.0588C35.0056 76.4064 32.9049 73.2567 31.4716 69.7898C30.0383 66.3228 29.3006 62.6065 29.3006 58.8535C29.3006 55.1004 30.0383 51.3841 31.4716 47.9172C32.9044 44.4512 35.0043 41.3024 37.6511 38.6506C40.2957 35.9964 43.4359 33.8908 46.8924 32.454C50.3498 31.0168 54.0559 30.2771 57.7987 30.2771C61.5415 30.2771 65.2476 31.0168 68.705 32.454C72.1625 33.8912 75.3036 35.9977 77.9487 38.653L78.5899 39.2959C80.3414 41.0055 82.5618 42.1525 84.9673 42.5898C87.3827 43.029 89.8739 42.7325 92.1197 41.7386C92.7339 41.4668 93.3872 41.2983 94.0535 41.2387C95.8334 40.2787 97.355 38.8902 98.4771 37.1912C99.7981 35.191 100.508 32.8476 100.519 30.4487V28.5588C100.519 20.9845 103.52 13.7205 108.861 8.36467Z" fill="white"/>
</svg>
