<svg width="353" height="354" viewBox="0 0 353 354" fill="none" xmlns="http://www.w3.org/2000/svg">
<path d="M140.871 176.977C140.871 157.239 156.826 141.246 176.5 141.246C196.173 141.246 212.128 157.239 212.128 176.977C212.128 196.714 196.173 212.707 176.5 212.707C156.826 212.707 140.871 196.714 140.871 176.977ZM176.5 121.53C145.955 121.53 121.201 146.358 121.201 176.977C121.201 207.595 145.955 232.423 176.5 232.423C207.044 232.423 231.798 207.595 231.798 176.977C231.798 146.358 207.044 121.53 176.5 121.53Z" fill="white" stroke="white" stroke-width="3" stroke-linecap="round" stroke-linejoin="round"/>
<mask id="path-2-outside-1_532_517" maskUnits="userSpaceOnUse" x="0" y="0" width="353" height="354" fill="black">
<rect fill="white" width="353" height="354"/>
<path fill-rule="evenodd" clip-rule="evenodd" d="M176.5 19.5692C170.723 19.5692 165.183 21.8703 161.098 25.9664C157.013 30.0624 154.719 35.6178 154.719 41.4104V43.9711L154.719 44.0042C154.693 50.4669 152.783 56.781 149.224 62.1693C145.666 67.5576 140.614 71.7849 134.69 74.3308C133.797 74.7145 132.845 74.9369 131.877 74.9889C126.291 77.0994 120.226 77.6571 114.33 76.5851C107.832 75.4037 101.837 72.2978 97.1167 67.6677L97.0515 67.6038L96.1506 66.6997C94.1277 64.669 91.7222 63.0547 89.078 61.9556C86.4338 60.8564 83.5994 60.2907 80.737 60.2907C77.8746 60.2907 75.0403 60.8564 72.396 61.9556C69.7518 63.0547 67.3496 64.6657 65.3267 66.6964L65.3202 66.7029C63.295 68.7314 61.6885 71.1402 60.5923 73.7917C59.4962 76.4432 58.932 79.2853 58.932 82.1556C58.932 85.0259 59.4962 87.868 60.5923 90.5195C61.6885 93.171 63.295 95.5798 65.3202 97.6083L66.2892 98.5799C70.9066 103.313 74.0036 109.325 75.1817 115.841C76.3443 122.27 75.5851 128.898 73.0028 134.893C70.6968 141.03 66.6258 146.345 61.3029 150.163C55.9093 154.031 49.4798 156.183 42.8503 156.338L42.6571 156.34H41.3052C35.5284 156.34 29.9882 158.642 25.9034 162.738C21.8186 166.834 19.5238 172.389 19.5238 178.182C19.5238 183.974 21.8186 189.53 25.9034 193.626C29.9882 197.722 35.5284 200.023 41.3052 200.023H43.8918C50.3368 200.049 56.6337 201.964 62.0072 205.532C67.3684 209.092 71.5771 214.143 74.1179 220.066C76.7697 226.113 77.5589 232.817 76.3835 239.318C75.2054 245.833 72.1079 251.845 67.4905 256.578L67.4268 256.643L66.5251 257.547C64.5 259.575 62.8902 261.987 61.7941 264.639C60.6979 267.29 60.1337 270.132 60.1337 273.003C60.1337 275.873 60.6979 278.715 61.7941 281.367C62.8902 284.018 64.4968 286.427 66.5219 288.455L66.5284 288.462C68.5513 290.493 70.9535 292.104 73.5978 293.203C76.242 294.302 79.0763 294.868 81.9387 294.868C84.8011 294.868 87.6355 294.302 90.2797 293.203C92.924 292.104 95.3262 290.493 97.3491 288.462L98.3181 287.49C103.038 282.86 109.034 279.755 115.531 278.573C121.943 277.408 128.553 278.169 134.532 280.758C140.652 283.07 145.952 287.153 149.759 292.49C153.617 297.899 155.763 304.346 155.918 310.993L155.92 311.187V312.543C155.92 318.336 158.215 323.891 162.3 327.987C166.385 332.083 171.925 334.384 177.702 334.384C183.479 334.384 189.019 332.083 193.103 327.987C197.188 323.891 199.483 318.336 199.483 312.543V309.982L199.483 309.949C199.509 303.486 201.419 297.172 204.977 291.784C208.528 286.407 213.566 282.187 219.474 279.639C225.504 276.981 232.188 276.19 238.67 277.368C245.168 278.55 251.163 281.655 255.883 286.286L255.948 286.349L256.849 287.254C258.872 289.284 261.278 290.899 263.922 291.998C266.566 293.097 269.401 293.663 272.263 293.663C275.125 293.663 277.96 293.097 280.604 291.998C283.248 290.899 285.65 289.288 287.673 287.257L287.68 287.25C289.705 285.222 291.312 282.813 292.408 280.162C293.504 277.51 294.068 274.668 294.068 271.798C294.068 268.927 293.504 266.085 292.408 263.434C291.312 260.782 289.705 258.373 287.68 256.345L286.711 255.373C282.093 250.64 278.996 244.628 277.818 238.113C276.643 231.613 277.432 224.91 280.083 218.863C282.623 212.94 286.833 207.888 292.194 204.327C297.568 200.759 303.865 198.844 310.31 198.818L310.343 198.818L311.695 198.818C317.472 198.818 323.012 196.517 327.097 192.421C331.181 188.325 333.476 182.769 333.476 176.977C333.476 171.184 331.181 165.629 327.097 161.533C323.012 157.437 317.472 155.135 311.695 155.135H309.141L309.108 155.135C302.663 155.11 296.366 153.195 290.993 149.626C285.619 146.058 281.404 140.992 278.865 135.051C278.482 134.156 278.26 133.202 278.208 132.231C276.104 126.629 275.547 120.548 276.617 114.636C277.795 108.12 280.892 102.109 285.509 97.3752L285.573 97.3099L286.475 96.4065C288.5 94.3781 290.11 91.9659 291.206 89.3145C292.302 86.663 292.866 83.8208 292.866 80.9506C292.866 78.0803 292.302 75.2382 291.206 72.5867C290.11 69.9352 288.503 67.5264 286.478 65.4979L286.472 65.4914C284.449 63.4607 282.046 61.8497 279.402 60.7505C276.758 59.6514 273.924 59.0857 271.061 59.0857C268.199 59.0857 265.365 59.6514 262.72 60.7505C260.076 61.8497 257.674 63.4607 255.651 65.4914L254.682 66.463C249.962 71.0931 243.966 74.1987 237.469 75.38C230.986 76.5587 224.3 75.7674 218.269 73.1082C212.363 70.5605 207.326 66.3402 203.776 60.9643C200.217 55.576 198.307 49.2619 198.281 42.7991L198.281 42.7661V41.4104C198.281 35.6178 195.987 30.0624 191.902 25.9664C187.817 21.8703 182.277 19.5692 176.5 19.5692ZM149.414 14.2502C156.598 7.0468 166.341 3 176.5 3C186.659 3 196.402 7.0468 203.586 14.2502C210.769 21.4535 214.805 31.2233 214.805 41.4104V42.7473C214.821 45.9737 215.775 49.1255 217.552 51.8156C219.331 54.5098 221.858 56.6234 224.82 57.8964L224.901 57.9314C227.922 59.2681 231.272 59.6673 234.521 59.0766C237.756 58.4884 240.742 56.9459 243.098 54.6468L243.96 53.7817C247.518 50.2104 251.742 47.3773 256.393 45.4444C261.043 43.5114 266.027 42.5165 271.061 42.5165C276.095 42.5165 281.08 43.5114 285.73 45.4444C290.377 47.3762 294.6 50.207 298.156 53.7752C301.717 57.3425 304.543 61.5787 306.47 66.2417C308.398 70.9046 309.39 75.9028 309.39 80.9506C309.39 85.9983 308.398 90.9965 306.47 95.6595C304.543 100.321 301.719 104.556 298.159 108.123C298.158 108.124 298.16 108.122 298.159 108.123L297.294 108.99C295.001 111.353 293.462 114.347 292.875 117.592C292.286 120.849 292.684 124.209 294.017 127.238C294.381 128.066 294.608 128.947 294.688 129.846C295.975 132.246 297.838 134.298 300.116 135.812C302.799 137.593 305.942 138.551 309.16 138.566H311.695C321.854 138.566 331.597 142.613 338.781 149.816C345.964 157.02 350 166.79 350 176.977C350 187.164 345.964 196.934 338.781 204.137C331.597 211.34 321.854 215.387 311.695 215.387H310.362C307.144 215.403 304.001 216.36 301.318 218.142C298.631 219.926 296.523 222.459 295.254 225.429L295.219 225.511C293.886 228.539 293.488 231.899 294.077 235.157C294.664 238.401 296.202 241.395 298.495 243.757L299.357 244.622C302.919 248.19 305.744 252.426 307.672 257.089C309.6 261.752 310.592 266.75 310.592 271.798C310.592 276.845 309.6 281.844 307.672 286.507C305.745 291.168 302.921 295.403 299.361 298.97C295.804 302.54 291.58 305.372 286.932 307.304C282.281 309.237 277.297 310.232 272.263 310.232C267.229 310.232 262.245 309.237 257.594 307.304C252.944 305.371 248.72 302.538 245.162 298.967L244.3 298.102C241.944 295.802 238.958 294.26 235.722 293.672C232.474 293.081 229.123 293.48 226.103 294.816L226.021 294.852C223.06 296.125 220.533 298.238 218.754 300.933C216.977 303.623 216.023 306.775 216.007 310.001V312.543C216.007 322.73 211.971 332.5 204.788 339.703C197.604 346.906 187.861 350.953 177.702 350.953C167.543 350.953 157.799 346.906 150.616 339.703C143.432 332.5 139.397 322.73 139.397 312.543V311.294C139.302 308.001 138.231 304.81 136.319 302.129C134.391 299.425 131.695 297.365 128.583 296.218C128.42 296.157 128.258 296.092 128.099 296.021C125.079 294.685 121.728 294.286 118.479 294.877C115.244 295.465 112.257 297.008 109.901 299.307C109.892 299.317 109.882 299.326 109.873 299.335L109.04 300.172C105.482 303.743 101.258 306.576 96.6073 308.509C91.9572 310.442 86.9726 311.437 81.9387 311.437C76.9048 311.437 71.9203 310.442 67.2701 308.509C62.62 306.576 58.3954 303.743 54.8378 300.172C51.2794 296.606 48.4563 292.372 46.5298 287.712C44.6021 283.049 43.6099 278.05 43.6099 273.003C43.6099 267.955 44.6021 262.957 46.5298 258.294C48.4575 253.631 51.2828 249.395 54.8443 245.827L55.707 244.962C57.9998 242.6 59.5381 239.606 60.1247 236.362C60.7138 233.104 60.3161 229.744 58.983 226.715L58.9473 226.634C57.6778 223.664 55.5704 221.131 52.8836 219.347C50.2008 217.565 47.0577 216.608 43.8402 216.592H41.3052C31.146 216.592 21.4029 212.545 14.2193 205.342C7.03572 198.139 3 188.369 3 178.182C3 167.995 7.03572 158.225 14.2193 151.021C21.4029 143.818 31.146 139.771 41.3052 139.771H42.5508C45.8348 139.677 49.017 138.603 51.6902 136.686C54.3871 134.752 56.4412 132.049 57.5857 128.928C57.6458 128.764 57.711 128.603 57.7813 128.443C59.1144 125.414 59.512 122.054 58.923 118.797C58.3364 115.553 56.798 112.558 54.505 110.196L53.6426 109.331C50.0811 105.764 47.2558 101.527 45.3281 96.8645C43.4004 92.2016 42.4082 87.2033 42.4082 82.1556C42.4082 77.1079 43.4004 72.1097 45.3281 67.4467C47.2552 62.7852 50.0794 58.5501 53.6393 54.9835C57.1962 51.4138 61.4196 48.5818 66.0684 46.6494C70.7186 44.7164 75.7031 43.7215 80.737 43.7215C85.7709 43.7215 90.7554 44.7164 95.4056 46.6494C100.056 48.5824 104.28 51.4155 107.838 54.9867L108.7 55.8515C111.056 58.1508 114.042 59.6934 117.278 60.2817C120.526 60.8723 123.877 60.4736 126.897 59.1368C127.724 58.7713 128.602 58.5447 129.498 58.4644C131.892 57.1733 133.939 55.3058 135.448 53.0207C137.225 50.3305 138.179 47.1788 138.195 43.9524V41.4104C138.195 31.2233 142.231 21.4535 149.414 14.2502Z"/>
</mask>
<path fill-rule="evenodd" clip-rule="evenodd" d="M176.5 19.5692C170.723 19.5692 165.183 21.8703 161.098 25.9664C157.013 30.0624 154.719 35.6178 154.719 41.4104V43.9711L154.719 44.0042C154.693 50.4669 152.783 56.781 149.224 62.1693C145.666 67.5576 140.614 71.7849 134.69 74.3308C133.797 74.7145 132.845 74.9369 131.877 74.9889C126.291 77.0994 120.226 77.6571 114.33 76.5851C107.832 75.4037 101.837 72.2978 97.1167 67.6677L97.0515 67.6038L96.1506 66.6997C94.1277 64.669 91.7222 63.0547 89.078 61.9556C86.4338 60.8564 83.5994 60.2907 80.737 60.2907C77.8746 60.2907 75.0403 60.8564 72.396 61.9556C69.7518 63.0547 67.3496 64.6657 65.3267 66.6964L65.3202 66.7029C63.295 68.7314 61.6885 71.1402 60.5923 73.7917C59.4962 76.4432 58.932 79.2853 58.932 82.1556C58.932 85.0259 59.4962 87.868 60.5923 90.5195C61.6885 93.171 63.295 95.5798 65.3202 97.6083L66.2892 98.5799C70.9066 103.313 74.0036 109.325 75.1817 115.841C76.3443 122.27 75.5851 128.898 73.0028 134.893C70.6968 141.03 66.6258 146.345 61.3029 150.163C55.9093 154.031 49.4798 156.183 42.8503 156.338L42.6571 156.34H41.3052C35.5284 156.34 29.9882 158.642 25.9034 162.738C21.8186 166.834 19.5238 172.389 19.5238 178.182C19.5238 183.974 21.8186 189.53 25.9034 193.626C29.9882 197.722 35.5284 200.023 41.3052 200.023H43.8918C50.3368 200.049 56.6337 201.964 62.0072 205.532C67.3684 209.092 71.5771 214.143 74.1179 220.066C76.7697 226.113 77.5589 232.817 76.3835 239.318C75.2054 245.833 72.1079 251.845 67.4905 256.578L67.4268 256.643L66.5251 257.547C64.5 259.575 62.8902 261.987 61.7941 264.639C60.6979 267.29 60.1337 270.132 60.1337 273.003C60.1337 275.873 60.6979 278.715 61.7941 281.367C62.8902 284.018 64.4968 286.427 66.5219 288.455L66.5284 288.462C68.5513 290.493 70.9535 292.104 73.5978 293.203C76.242 294.302 79.0763 294.868 81.9387 294.868C84.8011 294.868 87.6355 294.302 90.2797 293.203C92.924 292.104 95.3262 290.493 97.3491 288.462L98.3181 287.49C103.038 282.86 109.034 279.755 115.531 278.573C121.943 277.408 128.553 278.169 134.532 280.758C140.652 283.07 145.952 287.153 149.759 292.49C153.617 297.899 155.763 304.346 155.918 310.993L155.92 311.187V312.543C155.92 318.336 158.215 323.891 162.3 327.987C166.385 332.083 171.925 334.384 177.702 334.384C183.479 334.384 189.019 332.083 193.103 327.987C197.188 323.891 199.483 318.336 199.483 312.543V309.982L199.483 309.949C199.509 303.486 201.419 297.172 204.977 291.784C208.528 286.407 213.566 282.187 219.474 279.639C225.504 276.981 232.188 276.19 238.67 277.368C245.168 278.55 251.163 281.655 255.883 286.286L255.948 286.349L256.849 287.254C258.872 289.284 261.278 290.899 263.922 291.998C266.566 293.097 269.401 293.663 272.263 293.663C275.125 293.663 277.96 293.097 280.604 291.998C283.248 290.899 285.65 289.288 287.673 287.257L287.68 287.25C289.705 285.222 291.312 282.813 292.408 280.162C293.504 277.51 294.068 274.668 294.068 271.798C294.068 268.927 293.504 266.085 292.408 263.434C291.312 260.782 289.705 258.373 287.68 256.345L286.711 255.373C282.093 250.64 278.996 244.628 277.818 238.113C276.643 231.613 277.432 224.91 280.083 218.863C282.623 212.94 286.833 207.888 292.194 204.327C297.568 200.759 303.865 198.844 310.31 198.818L310.343 198.818L311.695 198.818C317.472 198.818 323.012 196.517 327.097 192.421C331.181 188.325 333.476 182.769 333.476 176.977C333.476 171.184 331.181 165.629 327.097 161.533C323.012 157.437 317.472 155.135 311.695 155.135H309.141L309.108 155.135C302.663 155.11 296.366 153.195 290.993 149.626C285.619 146.058 281.404 140.992 278.865 135.051C278.482 134.156 278.26 133.202 278.208 132.231C276.104 126.629 275.547 120.548 276.617 114.636C277.795 108.12 280.892 102.109 285.509 97.3752L285.573 97.3099L286.475 96.4065C288.5 94.3781 290.11 91.9659 291.206 89.3145C292.302 86.663 292.866 83.8208 292.866 80.9506C292.866 78.0803 292.302 75.2382 291.206 72.5867C290.11 69.9352 288.503 67.5264 286.478 65.4979L286.472 65.4914C284.449 63.4607 282.046 61.8497 279.402 60.7505C276.758 59.6514 273.924 59.0857 271.061 59.0857C268.199 59.0857 265.365 59.6514 262.72 60.7505C260.076 61.8497 257.674 63.4607 255.651 65.4914L254.682 66.463C249.962 71.0931 243.966 74.1987 237.469 75.38C230.986 76.5587 224.3 75.7674 218.269 73.1082C212.363 70.5605 207.326 66.3402 203.776 60.9643C200.217 55.576 198.307 49.2619 198.281 42.7991L198.281 42.7661V41.4104C198.281 35.6178 195.987 30.0624 191.902 25.9664C187.817 21.8703 182.277 19.5692 176.5 19.5692ZM149.414 14.2502C156.598 7.0468 166.341 3 176.5 3C186.659 3 196.402 7.0468 203.586 14.2502C210.769 21.4535 214.805 31.2233 214.805 41.4104V42.7473C214.821 45.9737 215.775 49.1255 217.552 51.8156C219.331 54.5098 221.858 56.6234 224.82 57.8964L224.901 57.9314C227.922 59.2681 231.272 59.6673 234.521 59.0766C237.756 58.4884 240.742 56.9459 243.098 54.6468L243.96 53.7817C247.518 50.2104 251.742 47.3773 256.393 45.4444C261.043 43.5114 266.027 42.5165 271.061 42.5165C276.095 42.5165 281.08 43.5114 285.73 45.4444C290.377 47.3762 294.6 50.207 298.156 53.7752C301.717 57.3425 304.543 61.5787 306.47 66.2417C308.398 70.9046 309.39 75.9028 309.39 80.9506C309.39 85.9983 308.398 90.9965 306.47 95.6595C304.543 100.321 301.719 104.556 298.159 108.123C298.158 108.124 298.16 108.122 298.159 108.123L297.294 108.99C295.001 111.353 293.462 114.347 292.875 117.592C292.286 120.849 292.684 124.209 294.017 127.238C294.381 128.066 294.608 128.947 294.688 129.846C295.975 132.246 297.838 134.298 300.116 135.812C302.799 137.593 305.942 138.551 309.16 138.566H311.695C321.854 138.566 331.597 142.613 338.781 149.816C345.964 157.02 350 166.79 350 176.977C350 187.164 345.964 196.934 338.781 204.137C331.597 211.34 321.854 215.387 311.695 215.387H310.362C307.144 215.403 304.001 216.36 301.318 218.142C298.631 219.926 296.523 222.459 295.254 225.429L295.219 225.511C293.886 228.539 293.488 231.899 294.077 235.157C294.664 238.401 296.202 241.395 298.495 243.757L299.357 244.622C302.919 248.19 305.744 252.426 307.672 257.089C309.6 261.752 310.592 266.75 310.592 271.798C310.592 276.845 309.6 281.844 307.672 286.507C305.745 291.168 302.921 295.403 299.361 298.97C295.804 302.54 291.58 305.372 286.932 307.304C282.281 309.237 277.297 310.232 272.263 310.232C267.229 310.232 262.245 309.237 257.594 307.304C252.944 305.371 248.72 302.538 245.162 298.967L244.3 298.102C241.944 295.802 238.958 294.26 235.722 293.672C232.474 293.081 229.123 293.48 226.103 294.816L226.021 294.852C223.06 296.125 220.533 298.238 218.754 300.933C216.977 303.623 216.023 306.775 216.007 310.001V312.543C216.007 322.73 211.971 332.5 204.788 339.703C197.604 346.906 187.861 350.953 177.702 350.953C167.543 350.953 157.799 346.906 150.616 339.703C143.432 332.5 139.397 322.73 139.397 312.543V311.294C139.302 308.001 138.231 304.81 136.319 302.129C134.391 299.425 131.695 297.365 128.583 296.218C128.42 296.157 128.258 296.092 128.099 296.021C125.079 294.685 121.728 294.286 118.479 294.877C115.244 295.465 112.257 297.008 109.901 299.307C109.892 299.317 109.882 299.326 109.873 299.335L109.04 300.172C105.482 303.743 101.258 306.576 96.6073 308.509C91.9572 310.442 86.9726 311.437 81.9387 311.437C76.9048 311.437 71.9203 310.442 67.2701 308.509C62.62 306.576 58.3954 303.743 54.8378 300.172C51.2794 296.606 48.4563 292.372 46.5298 287.712C44.6021 283.049 43.6099 278.05 43.6099 273.003C43.6099 267.955 44.6021 262.957 46.5298 258.294C48.4575 253.631 51.2828 249.395 54.8443 245.827L55.707 244.962C57.9998 242.6 59.5381 239.606 60.1247 236.362C60.7138 233.104 60.3161 229.744 58.983 226.715L58.9473 226.634C57.6778 223.664 55.5704 221.131 52.8836 219.347C50.2008 217.565 47.0577 216.608 43.8402 216.592H41.3052C31.146 216.592 21.4029 212.545 14.2193 205.342C7.03572 198.139 3 188.369 3 178.182C3 167.995 7.03572 158.225 14.2193 151.021C21.4029 143.818 31.146 139.771 41.3052 139.771H42.5508C45.8348 139.677 49.017 138.603 51.6902 136.686C54.3871 134.752 56.4412 132.049 57.5857 128.928C57.6458 128.764 57.711 128.603 57.7813 128.443C59.1144 125.414 59.512 122.054 58.923 118.797C58.3364 115.553 56.798 112.558 54.505 110.196L53.6426 109.331C50.0811 105.764 47.2558 101.527 45.3281 96.8645C43.4004 92.2016 42.4082 87.2033 42.4082 82.1556C42.4082 77.1079 43.4004 72.1097 45.3281 67.4467C47.2552 62.7852 50.0794 58.5501 53.6393 54.9835C57.1962 51.4138 61.4196 48.5818 66.0684 46.6494C70.7186 44.7164 75.7031 43.7215 80.737 43.7215C85.7709 43.7215 90.7554 44.7164 95.4056 46.6494C100.056 48.5824 104.28 51.4155 107.838 54.9867L108.7 55.8515C111.056 58.1508 114.042 59.6934 117.278 60.2817C120.526 60.8723 123.877 60.4736 126.897 59.1368C127.724 58.7713 128.602 58.5447 129.498 58.4644C131.892 57.1733 133.939 55.3058 135.448 53.0207C137.225 50.3305 138.179 47.1788 138.195 43.9524V41.4104C138.195 31.2233 142.231 21.4535 149.414 14.2502Z" fill="white"/>
<path d="M161.098 25.9664L163.222 28.0848L163.222 28.0848L161.098 25.9664ZM154.719 43.9711L157.719 43.9768V43.9711H154.719ZM154.719 44.0042L157.719 44.0161L157.719 44.0099L154.719 44.0042ZM149.224 62.1693L146.721 60.5161L146.721 60.5161L149.224 62.1693ZM134.69 74.3308L135.874 77.0871L135.874 77.0871L134.69 74.3308ZM131.877 74.9889L131.716 71.9932C131.408 72.0097 131.105 72.0736 130.817 72.1825L131.877 74.9889ZM114.33 76.5851L114.866 73.6334L114.866 73.6334L114.33 76.5851ZM97.1167 67.6677L99.2174 65.526L99.2174 65.526L97.1167 67.6677ZM97.0515 67.6038L94.9265 69.7214C94.9345 69.7295 94.9427 69.7375 94.9508 69.7455L97.0515 67.6038ZM96.1506 66.6997L94.0252 68.8169L94.0255 68.8173L96.1506 66.6997ZM89.078 61.9556L87.9265 64.7258L87.9265 64.7258L89.078 61.9556ZM72.396 61.9556L73.5476 64.7258L73.5476 64.7258L72.396 61.9556ZM65.3267 66.6964L67.4509 68.8148L67.4521 68.8137L65.3267 66.6964ZM65.3202 66.7029L67.4432 68.8225L67.4444 68.8214L65.3202 66.7029ZM60.5923 73.7917L63.3648 74.9379L63.3648 74.9379L60.5923 73.7917ZM60.5923 90.5195L63.3648 89.3734L63.3648 89.3734L60.5923 90.5195ZM65.3202 97.6083L67.4444 95.4899L67.4432 95.4887L65.3202 97.6083ZM66.2892 98.5799L68.4366 96.4851C68.4289 96.4772 68.4212 96.4693 68.4134 96.4615L66.2892 98.5799ZM75.1817 115.841L72.2296 116.374L72.2296 116.374L75.1817 115.841ZM73.0028 134.893L70.2476 133.706C70.2289 133.75 70.2112 133.793 70.1945 133.838L73.0028 134.893ZM61.3029 150.163L63.0513 152.6L63.0513 152.6L61.3029 150.163ZM42.8503 156.338L42.8854 159.338C42.8972 159.338 42.9089 159.338 42.9207 159.337L42.8503 156.338ZM42.6571 156.34V159.34C42.6688 159.34 42.6805 159.34 42.6922 159.34L42.6571 156.34ZM25.9034 162.738L28.0277 164.856L28.0277 164.856L25.9034 162.738ZM25.9034 193.626L23.7792 195.744L23.7792 195.744L25.9034 193.626ZM43.8918 200.023L43.9039 197.023H43.8918V200.023ZM62.0072 205.532L63.6668 203.033L63.6668 203.033L62.0072 205.532ZM74.1179 220.066L71.3609 221.249C71.364 221.256 71.3672 221.263 71.3704 221.271L74.1179 220.066ZM76.3835 239.318L73.4313 238.784L73.4313 238.784L76.3835 239.318ZM67.4905 256.578L69.6379 258.673L69.638 258.673L67.4905 256.578ZM67.4268 256.643L69.5502 258.763C69.5582 258.755 69.5662 258.747 69.5741 258.738L67.4268 256.643ZM66.5251 257.547L68.6482 259.666L68.6485 259.666L66.5251 257.547ZM61.7941 264.639L64.5665 265.785L64.5665 265.785L61.7941 264.639ZM61.7941 281.367L64.5665 280.22L64.5665 280.22L61.7941 281.367ZM66.5219 288.455L64.3989 290.575L64.399 290.575L66.5219 288.455ZM66.5284 288.462L68.6538 286.345L68.6514 286.342L66.5284 288.462ZM73.5978 293.203L74.7493 290.433L74.7493 290.433L73.5978 293.203ZM90.2797 293.203L89.1282 290.433L89.1282 290.433L90.2797 293.203ZM97.3491 288.462L95.2248 286.344L95.2237 286.345L97.3491 288.462ZM98.3181 287.49L96.2173 285.349C96.2094 285.356 96.2016 285.364 96.1938 285.372L98.3181 287.49ZM115.531 278.573L114.995 275.622L114.995 275.622L115.531 278.573ZM134.532 280.758L133.339 283.511C133.383 283.53 133.427 283.548 133.471 283.565L134.532 280.758ZM149.759 292.49L147.317 294.232L147.317 294.232L149.759 292.49ZM155.918 310.993L158.918 310.959C158.918 310.947 158.918 310.935 158.917 310.924L155.918 310.993ZM155.92 311.187H158.92C158.92 311.176 158.92 311.164 158.92 311.152L155.92 311.187ZM162.3 327.987L160.176 330.105L160.176 330.105L162.3 327.987ZM193.103 327.987L195.228 330.105L195.228 330.105L193.103 327.987ZM199.483 309.982L196.483 309.976V309.982H199.483ZM199.483 309.949L196.483 309.937L196.483 309.943L199.483 309.949ZM204.977 291.784L202.474 290.131L202.474 290.131L204.977 291.784ZM219.474 279.639L220.662 282.394C220.669 282.391 220.676 282.387 220.684 282.384L219.474 279.639ZM238.67 277.368L238.134 280.32L238.134 280.32L238.67 277.368ZM255.883 286.286L257.984 284.144L257.984 284.144L255.883 286.286ZM255.948 286.349L258.074 284.232C258.065 284.224 258.057 284.216 258.049 284.208L255.948 286.349ZM256.849 287.254L258.975 285.136L258.974 285.136L256.849 287.254ZM263.922 291.998L265.074 289.228L265.074 289.228L263.922 291.998ZM280.604 291.998L279.452 289.228L279.452 289.228L280.604 291.998ZM287.673 287.257L285.549 285.138L285.548 285.14L287.673 287.257ZM287.68 287.25L285.557 285.131L285.556 285.132L287.68 287.25ZM292.408 280.162L289.635 279.015L289.635 279.015L292.408 280.162ZM292.408 263.434L289.635 264.58L289.635 264.58L292.408 263.434ZM287.68 256.345L285.556 258.463L285.557 258.465L287.68 256.345ZM286.711 255.373L284.563 257.468C284.571 257.476 284.579 257.484 284.587 257.492L286.711 255.373ZM277.818 238.113L280.77 237.579L280.77 237.579L277.818 238.113ZM280.083 218.863L282.83 220.068C282.834 220.061 282.837 220.053 282.84 220.046L280.083 218.863ZM292.194 204.327L290.535 201.828L290.535 201.828L292.194 204.327ZM310.31 198.818L310.298 195.818L310.298 195.818L310.31 198.818ZM310.343 198.818L310.343 195.818L310.331 195.818L310.343 198.818ZM311.695 198.818L311.695 201.818H311.695V198.818ZM327.097 192.421L329.221 194.539L329.221 194.539L327.097 192.421ZM327.097 161.533L329.221 159.414L329.221 159.414L327.097 161.533ZM309.141 155.135L309.135 158.135H309.141V155.135ZM309.108 155.135L309.096 158.135L309.102 158.135L309.108 155.135ZM290.993 149.626L289.333 152.125L289.333 152.125L290.993 149.626ZM278.865 135.051L276.106 136.23L276.106 136.231L278.865 135.051ZM278.208 132.231L281.204 132.071C281.188 131.765 281.125 131.463 281.017 131.176L278.208 132.231ZM276.617 114.636L279.569 115.169L279.569 115.169L276.617 114.636ZM285.509 97.3752L287.657 99.4701L287.657 99.47L285.509 97.3752ZM285.573 97.3099L283.45 95.1907C283.442 95.1988 283.434 95.207 283.426 95.2152L285.573 97.3099ZM286.475 96.4065L284.352 94.2869L284.351 94.2873L286.475 96.4065ZM291.206 89.3145L288.434 88.1683L288.434 88.1683L291.206 89.3145ZM291.206 72.5867L288.434 73.7328L288.434 73.7328L291.206 72.5867ZM286.478 65.4979L284.353 67.6157L284.355 67.6175L286.478 65.4979ZM286.472 65.4914L284.346 67.6086L284.347 67.6092L286.472 65.4914ZM279.402 60.7505L278.251 63.5207L278.251 63.5207L279.402 60.7505ZM262.72 60.7505L263.872 63.5207L263.872 63.5207L262.72 60.7505ZM255.651 65.4914L257.775 67.6098L257.776 67.6086L255.651 65.4914ZM254.682 66.463L256.783 68.6048C256.791 68.597 256.798 68.5893 256.806 68.5814L254.682 66.463ZM237.469 75.38L236.932 72.4284L236.932 72.4284L237.469 75.38ZM218.269 73.1082L219.48 70.3632C219.472 70.36 219.465 70.3568 219.458 70.3536L218.269 73.1082ZM203.776 60.9643L201.272 62.6176L201.272 62.6176L203.776 60.9643ZM198.281 42.7991L195.281 42.8049L195.281 42.8111L198.281 42.7991ZM198.281 42.7661L195.281 42.7661L195.281 42.7718L198.281 42.7661ZM191.902 25.9664L194.026 23.8479L194.026 23.8479L191.902 25.9664ZM149.414 14.2502L151.538 16.3686L151.538 16.3686L149.414 14.2502ZM203.586 14.2502L201.462 16.3686L201.462 16.3686L203.586 14.2502ZM214.805 42.7473H211.805C211.805 42.7522 211.805 42.757 211.805 42.7619L214.805 42.7473ZM217.552 51.8156L215.049 53.4689L215.049 53.4689L217.552 51.8156ZM224.82 57.8964L226.004 55.1401L226.004 55.1401L224.82 57.8964ZM224.901 57.9314L226.115 55.188C226.105 55.1837 226.095 55.1794 226.086 55.1752L224.901 57.9314ZM234.521 59.0766L235.057 62.0283L235.057 62.0283L234.521 59.0766ZM243.098 54.6468L245.193 56.7937C245.203 56.7842 245.212 56.7747 245.222 56.7652L243.098 54.6468ZM243.96 53.7817L246.085 55.9001L246.086 55.8989L243.96 53.7817ZM256.393 45.4444L257.544 48.2146L257.544 48.2146L256.393 45.4444ZM285.73 45.4444L284.578 48.2146L284.578 48.2146L285.73 45.4444ZM298.156 53.7752L296.031 55.8929L296.033 55.8948L298.156 53.7752ZM306.47 66.2417L303.698 67.3878L303.698 67.3878L306.47 66.2417ZM306.47 95.6595L303.698 94.5133L303.698 94.5133L306.47 95.6595ZM297.294 108.99L295.17 106.872C295.16 106.881 295.151 106.891 295.141 106.901L297.294 108.99ZM292.875 117.592L289.923 117.058L289.923 117.058L292.875 117.592ZM294.017 127.238L296.763 126.029L296.763 126.029L294.017 127.238ZM294.688 129.846L291.699 130.112C291.735 130.515 291.852 130.907 292.044 131.264L294.688 129.846ZM300.116 135.812L301.776 133.313L301.776 133.313L300.116 135.812ZM309.16 138.566L309.145 141.566C309.15 141.566 309.155 141.566 309.16 141.566V138.566ZM338.781 149.816L336.656 151.935L336.656 151.935L338.781 149.816ZM338.781 204.137L336.656 202.019L336.656 202.019L338.781 204.137ZM310.362 215.387V212.387C310.357 212.387 310.352 212.387 310.347 212.387L310.362 215.387ZM301.318 218.142L302.978 220.641L302.978 220.641L301.318 218.142ZM295.254 225.429L292.495 224.25L292.495 224.25L295.254 225.429ZM295.219 225.511L297.965 226.719C297.969 226.709 297.974 226.699 297.978 226.689L295.219 225.511ZM294.077 235.157L291.125 235.69L291.125 235.69L294.077 235.157ZM298.495 243.757L296.342 245.847C296.352 245.857 296.361 245.866 296.371 245.876L298.495 243.757ZM299.357 244.622L297.233 246.741L297.234 246.742L299.357 244.622ZM307.672 257.089L304.899 258.235L304.899 258.235L307.672 257.089ZM307.672 286.507L304.899 285.36L304.899 285.36L307.672 286.507ZM299.361 298.97L297.237 296.85L297.236 296.852L299.361 298.97ZM286.932 307.304L285.78 304.534L285.78 304.534L286.932 307.304ZM257.594 307.304L258.746 304.534L258.746 304.534L257.594 307.304ZM245.162 298.967L247.287 296.849L247.286 296.848L245.162 298.967ZM244.3 298.102L246.424 295.983C246.414 295.974 246.405 295.964 246.395 295.955L244.3 298.102ZM235.722 293.672L236.259 290.72L236.259 290.72L235.722 293.672ZM226.103 294.816L224.888 292.073L224.888 292.073L226.103 294.816ZM226.021 294.852L227.206 297.609C227.216 297.604 227.226 297.6 227.236 297.596L226.021 294.852ZM218.754 300.933L221.257 302.586L221.257 302.586L218.754 300.933ZM216.007 310.001L213.007 309.986C213.007 309.991 213.007 309.996 213.007 310.001L216.007 310.001ZM204.788 339.703L202.663 337.585L202.663 337.585L204.788 339.703ZM150.616 339.703L152.74 337.585L152.74 337.585L150.616 339.703ZM139.397 311.294H142.397C142.397 311.265 142.396 311.237 142.395 311.208L139.397 311.294ZM136.319 302.129L138.762 300.387L138.762 300.387L136.319 302.129ZM128.583 296.218L129.621 293.403L129.621 293.403L128.583 296.218ZM128.099 296.021L129.313 293.278L129.313 293.278L128.099 296.021ZM118.479 294.877L117.943 291.925L117.943 291.925L118.479 294.877ZM109.901 299.307L111.996 301.455L111.997 301.454L109.901 299.307ZM109.873 299.335L107.772 297.194C107.764 297.202 107.756 297.21 107.748 297.218L109.873 299.335ZM109.04 300.172L106.915 298.054L106.914 298.054L109.04 300.172ZM96.6073 308.509L95.4558 305.739L95.4558 305.739L96.6073 308.509ZM67.2701 308.509L68.4217 305.739L68.4216 305.739L67.2701 308.509ZM54.8378 300.172L56.9632 298.054L56.9614 298.053L54.8378 300.172ZM46.5298 287.712L49.3022 286.565L49.3022 286.565L46.5298 287.712ZM46.5298 258.294L49.3022 259.44L49.3022 259.44L46.5298 258.294ZM54.8443 245.827L56.9674 247.947L56.9685 247.946L54.8443 245.827ZM55.707 244.962L57.8312 247.081C57.8407 247.071 57.8502 247.062 57.8596 247.052L55.707 244.962ZM60.1247 236.362L63.0769 236.895L63.0769 236.895L60.1247 236.362ZM58.983 226.715L61.7289 225.507L61.7288 225.507L58.983 226.715ZM58.9473 226.634L56.1887 227.813C56.1929 227.823 56.1972 227.833 56.2015 227.843L58.9473 226.634ZM52.8836 219.347L54.5432 216.847L54.5432 216.847L52.8836 219.347ZM43.8402 216.592L43.8548 213.592C43.8499 213.592 43.845 213.592 43.8402 213.592L43.8402 216.592ZM14.2193 205.342L16.3436 203.224L16.3436 203.224L14.2193 205.342ZM14.2193 151.021L16.3436 153.14L16.3436 153.14L14.2193 151.021ZM42.5508 139.771V142.771C42.5796 142.771 42.6083 142.771 42.637 142.77L42.5508 139.771ZM51.6902 136.686L53.4386 139.124L53.4386 139.124L51.6902 136.686ZM57.5857 128.928L54.7692 127.895L54.7692 127.895L57.5857 128.928ZM57.7813 128.443L60.5271 129.651L60.5271 129.651L57.7813 128.443ZM58.923 118.797L55.9709 119.331L55.9709 119.331L58.923 118.797ZM54.505 110.196L56.6576 108.106C56.6482 108.096 56.6387 108.087 56.6292 108.077L54.505 110.196ZM53.6426 109.331L55.7668 107.213L55.7656 107.211L53.6426 109.331ZM45.3281 96.8645L48.1005 95.7184L48.1005 95.7184L45.3281 96.8645ZM45.3281 67.4467L48.1005 68.5928L48.1005 68.5928L45.3281 67.4467ZM53.6393 54.9835L55.7626 57.1028L55.7645 57.101L53.6393 54.9835ZM66.0684 46.6494L67.2199 49.4196L67.2199 49.4196L66.0684 46.6494ZM107.838 54.9867L105.713 57.104L105.714 57.1052L107.838 54.9867ZM108.7 55.8515L106.576 57.9699C106.586 57.9795 106.595 57.9889 106.605 57.9984L108.7 55.8515ZM117.278 60.2817L116.741 63.2333L116.741 63.2333L117.278 60.2817ZM126.897 59.1368L125.683 56.3935L125.683 56.3935L126.897 59.1368ZM129.498 58.4644L129.766 61.4524C130.171 61.4162 130.564 61.2979 130.922 61.1049L129.498 58.4644ZM135.448 53.0207L137.951 54.674L137.951 54.674L135.448 53.0207ZM138.195 43.9524L141.195 43.9669C141.195 43.9621 141.195 43.9572 141.195 43.9524L138.195 43.9524ZM163.222 28.0848C166.745 24.5523 171.522 22.5692 176.5 22.5692V16.5692C169.925 16.5692 163.621 19.1884 158.974 23.8479L163.222 28.0848ZM157.719 41.4104C157.719 36.4108 159.699 31.6176 163.222 28.0848L158.974 23.8479C154.328 28.5072 151.719 34.8248 151.719 41.4104H157.719ZM157.719 43.9711V41.4104H151.719V43.9711H157.719ZM157.719 44.0099L157.719 43.9768L151.719 43.9654L151.719 43.9984L157.719 44.0099ZM151.728 63.8226C155.608 57.9468 157.691 51.0621 157.719 44.0161L151.719 43.9922C151.695 49.8717 149.958 55.6153 146.721 60.5161L151.728 63.8226ZM135.874 77.0871C142.337 74.3097 147.847 69.6986 151.728 63.8226L146.721 60.5161C143.485 65.4167 138.89 69.2602 133.505 71.5746L135.874 77.0871ZM132.038 77.9845C133.358 77.9136 134.657 77.6103 135.874 77.0871L133.505 71.5746C132.937 71.8187 132.331 71.9601 131.716 71.9932L132.038 77.9845ZM113.793 79.5367C120.226 80.7063 126.843 80.0978 132.937 77.7953L130.817 72.1825C125.738 74.1011 120.226 74.6079 114.866 73.6334L113.793 79.5367ZM95.0159 69.8094C100.164 74.8593 106.704 78.2478 113.793 79.5367L114.866 73.6334C108.961 72.5597 103.51 69.7363 99.2174 65.526L95.0159 69.8094ZM94.9508 69.7455L95.016 69.8094L99.2174 65.526L99.1523 65.4621L94.9508 69.7455ZM87.9265 64.7258C90.2053 65.673 92.2801 67.0651 94.0252 68.8169L98.276 64.5825C95.9753 62.2729 93.2391 60.4364 90.2295 59.1854L87.9265 64.7258ZM80.737 63.2907C83.204 63.2907 85.6471 63.7783 87.9265 64.7258L90.2295 59.1854C87.2205 57.9346 83.9948 57.2907 80.737 57.2907V63.2907ZM73.5476 64.7258C75.827 63.7783 78.27 63.2907 80.737 63.2907V57.2907C77.4792 57.2907 74.2536 57.9346 71.2445 59.1854L73.5476 64.7258ZM67.4521 68.8137C69.1968 67.0622 71.2681 65.6733 73.5476 64.7258L71.2445 59.1854C68.2355 60.4361 65.5024 62.2692 63.2013 64.5792L67.4521 68.8137ZM67.4444 68.8214L67.4509 68.8148L63.2025 64.578L63.196 64.5845L67.4444 68.8214ZM63.3648 74.9379C64.3106 72.65 65.6966 70.572 67.4432 68.8225L63.1971 64.5834C60.8934 66.8908 59.0663 69.6305 57.8199 72.6456L63.3648 74.9379ZM61.932 82.1556C61.932 79.6784 62.4189 77.2258 63.3648 74.9379L57.8199 72.6456C56.5735 75.6607 55.932 78.8922 55.932 82.1556H61.932ZM63.3648 89.3734C62.4189 87.0855 61.932 84.6328 61.932 82.1556H55.932C55.932 85.419 56.5735 88.6506 57.8199 91.6656L63.3648 89.3734ZM67.4432 95.4887C65.6966 93.7392 64.3106 91.6612 63.3648 89.3734L57.8199 91.6656C59.0663 94.6807 60.8934 97.4204 63.1971 99.7279L67.4432 95.4887ZM78.1338 115.307C76.8494 108.204 73.4726 101.648 68.4366 96.4851L64.1417 100.675C68.3405 104.979 71.1578 110.447 72.2296 116.374L78.1338 115.307ZM75.7581 136.08C78.5737 129.543 79.4013 122.316 78.1338 115.307L72.2296 116.374C73.2872 122.223 72.5965 128.253 70.2476 133.706L75.7581 136.08ZM63.0513 152.6C68.8573 148.436 73.2968 142.64 75.8111 135.948L70.1945 133.838C68.0969 139.42 64.3942 144.254 59.5545 147.725L63.0513 152.6ZM42.9207 159.337C50.1538 159.168 57.168 156.82 63.0513 152.6L59.5545 147.725C54.6506 151.242 48.8058 153.198 42.78 153.339L42.9207 159.337ZM42.6922 159.34L42.8854 159.338L42.8153 153.338L42.6221 153.341L42.6922 159.34ZM41.3052 159.34H42.6571V153.34H41.3052V159.34ZM28.0277 164.856C31.5505 161.324 36.3267 159.34 41.3052 159.34V153.34C34.7301 153.34 28.426 155.96 23.7792 160.619L28.0277 164.856ZM22.5238 178.182C22.5238 173.182 24.5046 168.389 28.0277 164.856L23.7792 160.619C19.1327 165.278 16.5238 171.596 16.5238 178.182H22.5238ZM28.0277 191.507C24.5045 187.975 22.5238 183.181 22.5238 178.182H16.5238C16.5238 184.767 19.1327 191.085 23.7792 195.744L28.0277 191.507ZM41.3052 197.023C36.3267 197.023 31.5505 195.04 28.0277 191.507L23.7792 195.744C28.426 200.404 34.7301 203.023 41.3052 203.023V197.023ZM63.6668 203.033C57.8053 199.14 50.9357 197.051 43.9039 197.023L43.8798 203.023C49.738 203.046 55.4621 204.787 60.3476 208.031L63.6668 203.033ZM76.8749 218.883C74.1045 212.425 69.5148 206.916 63.6668 203.033L60.3476 208.031C65.222 211.268 69.0497 215.861 71.3609 221.249L76.8749 218.883ZM79.3356 239.852C80.6171 232.764 79.7568 225.455 76.8653 218.861L71.3704 221.271C73.7827 226.771 74.5007 232.87 73.4313 238.784L79.3356 239.852ZM69.638 258.673C74.6739 253.511 78.0511 246.955 79.3356 239.852L73.4313 238.784C72.3596 244.711 69.542 250.179 65.3431 254.483L69.638 258.673ZM69.5741 258.738L69.6379 258.673L65.3432 254.483L65.2795 254.548L69.5741 258.738ZM64.5665 265.785C65.5121 263.498 66.9011 261.416 68.6482 259.666L64.4021 255.427C62.0988 257.734 60.2683 260.477 59.0216 263.493L64.5665 265.785ZM63.1337 273.003C63.1337 270.526 63.6207 268.073 64.5665 265.785L59.0216 263.493C57.7752 266.508 57.1337 269.739 57.1337 273.003H63.1337ZM64.5665 280.22C63.6207 277.933 63.1337 275.48 63.1337 273.003H57.1337C57.1337 276.266 57.7752 279.498 59.0216 282.513L64.5665 280.22ZM68.645 286.336C66.8984 284.586 65.5123 282.508 64.5665 280.22L59.0216 282.513C60.2681 285.528 62.0952 288.268 64.3989 290.575L68.645 286.336ZM68.6514 286.342L68.6449 286.336L64.399 290.575L64.4055 290.582L68.6514 286.342ZM74.7493 290.433C72.4698 289.485 70.3985 288.096 68.6538 286.345L64.403 290.579C66.7041 292.889 69.4372 294.722 72.4463 295.973L74.7493 290.433ZM81.9387 291.868C79.4717 291.868 77.0287 291.38 74.7493 290.433L72.4462 295.973C75.4553 297.224 78.681 297.868 81.9387 297.868V291.868ZM89.1282 290.433C86.8488 291.38 84.4058 291.868 81.9387 291.868V297.868C85.1965 297.868 88.4222 297.224 91.4312 295.973L89.1282 290.433ZM95.2237 286.345C93.479 288.096 91.4077 289.485 89.1282 290.433L91.4312 295.973C94.4402 294.722 97.1734 292.889 99.4745 290.579L95.2237 286.345ZM114.995 275.622C107.906 276.91 101.366 280.299 96.2173 285.349L100.419 289.632C104.711 285.422 110.162 282.599 116.068 281.525L114.995 275.622ZM135.724 278.005C129.202 275.18 121.99 274.35 114.995 275.622L116.068 281.525C121.896 280.465 127.905 281.157 133.339 283.511L135.724 278.005ZM152.202 290.748C148.05 284.927 142.269 280.474 135.592 277.952L133.471 283.565C139.035 285.667 143.855 289.378 147.317 294.232L152.202 290.748ZM158.917 310.924C158.748 303.676 156.409 296.646 152.202 290.748L147.317 294.232C150.826 299.151 152.778 305.016 152.919 311.063L158.917 310.924ZM158.92 311.152L158.918 310.959L152.918 311.028L152.921 311.222L158.92 311.152ZM158.92 312.543V311.187H152.92V312.543H158.92ZM164.424 325.869C160.901 322.336 158.92 317.543 158.92 312.543H152.92C152.92 319.129 155.529 325.446 160.176 330.105L164.424 325.869ZM177.702 331.384C172.723 331.384 167.947 329.401 164.424 325.869L160.176 330.105C164.823 334.765 171.127 337.384 177.702 337.384V331.384ZM190.979 325.869C187.456 329.401 182.68 331.384 177.702 331.384V337.384C184.277 337.384 190.581 334.765 195.228 330.105L190.979 325.869ZM196.483 312.543C196.483 317.543 194.502 322.336 190.979 325.869L195.228 330.105C199.874 325.446 202.483 319.129 202.483 312.543H196.483ZM196.483 309.982V312.543H202.483V309.982H196.483ZM196.483 309.943L196.483 309.976L202.483 309.988L202.483 309.955L196.483 309.943ZM202.474 290.131C198.593 296.007 196.511 302.891 196.483 309.937L202.483 309.961C202.507 304.082 204.244 298.338 207.481 293.437L202.474 290.131ZM218.286 276.884C211.841 279.664 206.346 284.267 202.474 290.131L207.481 293.437C210.71 288.547 215.291 284.71 220.662 282.394L218.286 276.884ZM239.207 274.417C232.135 273.131 224.842 273.994 218.263 276.894L220.684 282.384C226.165 279.967 232.242 279.249 238.134 280.32L239.207 274.417ZM257.984 284.144C252.836 279.094 246.296 275.705 239.207 274.417L238.134 280.32C244.039 281.394 249.49 284.217 253.783 288.427L257.984 284.144ZM258.049 284.208L257.984 284.144L253.783 288.427L253.848 288.491L258.049 284.208ZM265.074 289.228C262.795 288.28 260.72 286.888 258.975 285.136L254.724 289.371C257.025 291.68 259.761 293.517 262.771 294.768L265.074 289.228ZM272.263 290.663C269.796 290.663 267.353 290.175 265.074 289.228L262.77 294.768C265.78 296.019 269.005 296.663 272.263 296.663V290.663ZM279.452 289.228C277.173 290.175 274.73 290.663 272.263 290.663V296.663C275.521 296.663 278.746 296.019 281.755 294.768L279.452 289.228ZM285.548 285.14C283.803 286.891 281.732 288.28 279.452 289.228L281.755 294.768C284.764 293.517 287.498 291.684 289.799 289.374L285.548 285.14ZM285.556 285.132L285.549 285.138L289.798 289.375L289.804 289.369L285.556 285.132ZM289.635 279.015C288.689 281.303 287.303 283.381 285.557 285.131L289.803 289.37C292.107 287.062 293.934 284.323 295.18 281.308L289.635 279.015ZM291.068 271.798C291.068 274.275 290.581 276.728 289.635 279.015L295.18 281.308C296.427 278.293 297.068 275.061 297.068 271.798H291.068ZM289.635 264.58C290.581 266.868 291.068 269.321 291.068 271.798H297.068C297.068 268.534 296.427 265.303 295.18 262.288L289.635 264.58ZM285.557 258.465C287.303 260.214 288.689 262.292 289.635 264.58L295.18 262.288C293.934 259.273 292.107 256.533 289.803 254.225L285.557 258.465ZM274.866 238.647C276.151 245.75 279.527 252.306 284.563 257.468L288.858 253.279C284.659 248.974 281.842 243.506 280.77 237.579L274.866 238.647ZM277.335 217.659C274.445 224.252 273.585 231.56 274.866 238.647L280.77 237.579C279.701 231.666 280.419 225.568 282.83 220.068L277.335 217.659ZM290.535 201.828C284.686 205.712 280.096 211.222 277.326 217.681L282.84 220.046C285.151 214.658 288.979 210.064 293.854 206.826L290.535 201.828ZM310.298 195.818C303.266 195.846 296.396 197.935 290.535 201.828L293.854 206.826C298.74 203.582 304.464 201.841 310.322 201.818L310.298 195.818ZM310.331 195.818L310.298 195.818L310.321 201.818L310.354 201.818L310.331 195.818ZM311.695 195.818L310.343 195.818L310.343 201.818L311.695 201.818L311.695 195.818ZM324.972 190.302C321.45 193.835 316.673 195.818 311.695 195.818V201.818C318.27 201.818 324.574 199.199 329.221 194.539L324.972 190.302ZM330.476 176.977C330.476 181.976 328.495 186.77 324.972 190.302L329.221 194.539C333.867 189.88 336.476 183.562 336.476 176.977H330.476ZM324.972 163.651C328.495 167.184 330.476 171.977 330.476 176.977H336.476C336.476 170.391 333.867 164.073 329.221 159.414L324.972 163.651ZM311.695 158.135C316.673 158.135 321.45 160.118 324.972 163.651L329.221 159.414C324.574 154.755 318.27 152.135 311.695 152.135V158.135ZM309.141 158.135H311.695V152.135H309.141V158.135ZM309.102 158.135L309.135 158.135L309.147 152.135L309.114 152.135L309.102 158.135ZM289.333 152.125C295.195 156.018 302.064 158.107 309.096 158.135L309.12 152.135C303.262 152.112 297.538 150.371 292.652 147.127L289.333 152.125ZM276.106 136.231C278.874 142.708 283.472 148.233 289.333 152.125L292.652 147.127C287.767 143.883 283.933 139.276 281.623 133.872L276.106 136.231ZM275.213 132.391C275.283 133.712 275.585 135.011 276.106 136.23L281.623 133.872C281.379 133.301 281.237 132.691 281.204 132.071L275.213 132.391ZM273.664 114.102C272.499 120.548 273.105 127.178 275.4 133.286L281.017 131.176C279.102 126.08 278.596 120.548 279.569 115.169L273.664 114.102ZM283.362 95.2804C278.326 100.443 274.949 106.998 273.664 114.102L279.569 115.169C280.64 109.242 283.458 103.774 287.657 99.4701L283.362 95.2804ZM283.426 95.2152L283.362 95.2805L287.657 99.47L287.721 99.4047L283.426 95.2152ZM284.351 94.2873L283.45 95.1907L287.697 99.4292L288.598 98.5258L284.351 94.2873ZM288.434 88.1683C287.488 90.4556 286.099 92.537 284.352 94.2869L288.598 98.5261C290.901 96.2191 292.732 93.4763 293.978 90.4606L288.434 88.1683ZM289.866 80.9506C289.866 83.4277 289.379 85.8804 288.434 88.1683L293.978 90.4606C295.225 87.4455 295.866 84.2139 295.866 80.9506H289.866ZM288.434 73.7328C289.379 76.0207 289.866 78.4734 289.866 80.9506H295.866C295.866 77.6872 295.225 74.4556 293.978 71.4405L288.434 73.7328ZM284.355 67.6175C286.102 69.367 287.488 71.445 288.434 73.7328L293.978 71.4406C292.732 68.4255 290.905 65.6858 288.601 63.3783L284.355 67.6175ZM284.347 67.6092L284.353 67.6157L288.603 63.3801L288.596 63.3736L284.347 67.6092ZM278.251 63.5207C280.53 64.4683 282.602 65.8572 284.346 67.6086L288.597 63.3742C286.296 61.0641 283.563 59.2311 280.554 57.9803L278.251 63.5207ZM271.061 62.0857C273.528 62.0857 275.971 62.5732 278.251 63.5207L280.554 57.9803C277.545 56.7296 274.319 56.0857 271.061 56.0857V62.0857ZM263.872 63.5207C266.151 62.5732 268.594 62.0857 271.061 62.0857V56.0857C267.803 56.0857 264.578 56.7296 261.569 57.9803L263.872 63.5207ZM257.776 67.6086C259.521 65.8572 261.592 64.4683 263.872 63.5207L261.569 57.9803C258.56 59.2311 255.827 61.0641 253.526 63.3742L257.776 67.6086ZM238.005 78.3316C245.094 77.0428 251.634 73.6547 256.783 68.6048L252.581 64.3213C248.289 68.5315 242.838 71.3546 236.932 72.4284L238.005 78.3316ZM217.059 75.8532C223.638 78.7542 230.932 79.6176 238.005 78.3316L236.932 72.4284C231.039 73.4998 224.962 72.7806 219.48 70.3632L217.059 75.8532ZM201.272 62.6176C205.144 68.4801 210.638 73.0834 217.081 75.8628L219.458 70.3536C214.088 68.0375 209.508 64.2004 206.279 59.311L201.272 62.6176ZM195.281 42.8111C195.31 49.8571 197.392 56.7417 201.272 62.6176L206.279 59.311C203.042 54.4103 201.305 48.6667 201.281 42.7872L195.281 42.8111ZM195.281 42.7718L195.281 42.8049L201.281 42.7934L201.281 42.7604L195.281 42.7718ZM195.281 41.4104V42.7661H201.281V41.4104H195.281ZM189.778 28.0848C193.301 31.6175 195.281 36.4108 195.281 41.4104H201.281C201.281 34.8248 198.672 28.5072 194.026 23.8479L189.778 28.0848ZM176.5 22.5692C181.478 22.5692 186.255 24.5522 189.778 28.0848L194.026 23.8479C189.379 19.1884 183.075 16.5692 176.5 16.5692V22.5692ZM176.5 0C165.543 0 155.036 4.36488 147.29 12.1317L151.538 16.3686C158.16 9.72873 167.139 6 176.5 6V0ZM205.71 12.1317C197.965 4.36488 187.457 0 176.5 0V6C185.861 6 194.84 9.72873 201.462 16.3686L205.71 12.1317ZM217.805 41.4104C217.805 30.4303 213.455 19.8983 205.71 12.1317L201.462 16.3686C208.084 23.0087 211.805 32.0163 211.805 41.4104H217.805ZM217.805 42.7473V41.4104H211.805V42.7473H217.805ZM220.055 50.1624C218.6 47.959 217.818 45.3768 217.805 42.7328L211.805 42.7619C211.824 46.5706 212.951 50.2919 215.049 53.4689L220.055 50.1624ZM226.004 55.1401C223.581 54.0987 221.513 52.3688 220.055 50.1624L215.049 53.4689C217.15 56.6508 220.134 59.1482 223.635 60.6526L226.004 55.1401ZM226.086 55.1752L226.004 55.1401L223.635 60.6526L223.716 60.6876L226.086 55.1752ZM233.984 56.125C231.327 56.6081 228.587 56.2818 226.115 55.188L223.687 60.6747C227.257 62.2545 231.217 62.7265 235.057 62.0283L233.984 56.125ZM241.002 52.4998C239.074 54.382 236.63 55.6439 233.984 56.125L235.057 62.0283C238.881 61.333 242.41 59.5098 245.193 56.7937L241.002 52.4998ZM241.836 51.6633L240.973 52.5284L245.222 56.7652L246.085 55.9001L241.836 51.6633ZM255.241 42.6742C250.226 44.7588 245.671 47.8139 241.835 51.6645L246.086 55.8989C249.365 52.607 253.259 49.9959 257.544 48.2146L255.241 42.6742ZM271.061 39.5165C265.632 39.5165 260.256 40.5895 255.241 42.6742L257.544 48.2146C261.83 46.4332 266.423 45.5165 271.061 45.5165V39.5165ZM286.881 42.6742C281.866 40.5895 276.491 39.5165 271.061 39.5165V45.5165C275.7 45.5165 280.293 46.4332 284.578 48.2146L286.881 42.6742ZM300.281 51.6575C296.446 47.8102 291.893 44.7575 286.881 42.6742L284.578 48.2146C288.861 49.9948 292.753 52.6038 296.031 55.8929L300.281 51.6575ZM309.243 65.0955C307.165 60.069 304.119 55.5019 300.279 51.6556L296.033 55.8948C299.316 59.1831 301.92 63.0884 303.698 67.3878L309.243 65.0955ZM312.39 80.9506C312.39 75.5097 311.321 70.1221 309.243 65.0955L303.698 67.3878C305.475 71.6872 306.39 76.2959 306.39 80.9506H312.39ZM309.243 96.8056C311.321 91.7791 312.39 86.3914 312.39 80.9506H306.39C306.39 85.6052 305.475 90.214 303.698 94.5133L309.243 96.8056ZM300.282 110.242C304.121 106.396 307.165 101.831 309.243 96.8056L303.698 94.5133C301.921 98.8114 299.317 102.716 296.036 106.003L300.282 110.242ZM300.268 110.256C300.268 110.256 300.268 110.256 300.268 110.256C300.268 110.256 300.268 110.256 300.268 110.256C300.268 110.256 300.268 110.256 300.268 110.256C300.268 110.256 300.268 110.256 300.268 110.256C300.268 110.256 300.268 110.256 300.268 110.256C300.268 110.256 300.268 110.256 300.268 110.256C300.268 110.256 300.268 110.256 300.268 110.256C300.268 110.256 300.268 110.256 300.268 110.256C300.268 110.256 300.268 110.256 300.268 110.256C296.026 110.231 296.05 105.989 296.05 105.989C296.05 105.989 296.05 105.989 296.05 105.989C296.05 105.989 296.05 105.989 296.05 105.989C296.05 105.989 296.05 105.989 296.05 105.989C296.05 105.989 296.05 105.989 296.05 105.989C296.05 105.989 296.05 105.989 296.05 105.989C296.05 105.989 296.05 105.989 296.05 105.989C296.05 105.989 296.05 105.989 296.05 105.989C296.05 105.989 296.05 105.989 296.05 105.989C296.05 105.989 296.05 105.989 296.05 105.989C296.05 105.989 296.05 105.989 296.05 105.989C296.05 105.989 296.05 105.989 296.05 105.989C296.05 105.989 296.05 105.989 296.05 105.989C296.05 105.989 296.05 105.989 296.05 105.989C296.05 105.989 296.05 105.989 296.05 105.989C296.05 105.989 296.05 105.989 296.05 105.989C296.05 105.989 296.05 105.989 296.05 105.989C296.05 105.989 296.05 105.989 296.05 105.989C296.05 105.989 296.05 105.989 296.05 105.989C296.05 105.989 296.05 105.989 296.05 105.989C296.05 105.989 296.05 105.989 296.05 105.989C296.05 105.989 296.05 105.989 296.05 105.989C296.05 105.989 296.025 110.232 300.268 110.257C300.268 110.257 300.268 110.257 300.268 110.257C300.268 110.257 300.268 110.257 300.268 110.257C300.268 110.257 300.268 110.257 300.268 110.257C300.268 110.257 300.268 110.257 300.268 110.257C300.268 110.257 300.268 110.257 300.268 110.257C300.268 110.257 300.268 110.257 300.268 110.257C300.268 110.257 300.268 110.257 300.268 110.257C300.268 110.256 300.268 110.257 300.268 110.256C300.268 110.256 300.268 110.256 300.268 110.256L296.05 105.989C296.05 105.989 296.05 105.989 296.05 105.989C296.05 105.989 296.05 105.989 296.05 105.989C296.05 105.989 296.05 105.989 296.05 105.989C296.05 105.989 296.05 105.989 296.05 105.989C296.05 105.989 296.05 105.989 296.05 105.989C296.05 105.989 296.05 105.989 296.05 105.989C296.05 105.989 296.05 105.989 296.05 105.989C296.05 105.989 296.05 105.989 296.05 105.989C296.05 105.989 296.05 105.989 296.05 105.989C300.292 106.014 300.268 110.257 300.268 110.257C300.268 110.257 300.268 110.257 300.268 110.257C300.268 110.257 300.268 110.257 300.268 110.257C300.268 110.257 300.268 110.257 300.268 110.257C300.268 110.257 300.268 110.257 300.268 110.257C300.268 110.257 300.268 110.257 300.268 110.257C300.268 110.257 300.268 110.257 300.268 110.257C300.268 110.257 300.267 110.257 300.268 110.257C300.268 110.257 300.268 110.257 300.268 110.257C300.268 110.256 300.268 110.257 300.268 110.257C300.268 110.256 300.268 110.256 300.268 110.256C300.268 110.256 300.268 110.256 300.268 110.256C300.268 110.256 300.268 110.256 300.268 110.256C300.268 110.256 300.268 110.256 300.268 110.256C300.268 110.256 300.268 110.256 300.268 110.256C300.268 110.256 300.268 110.256 300.268 110.256C300.268 110.256 300.268 110.256 300.268 110.256C300.268 110.256 300.268 110.256 300.268 110.256C300.268 110.256 300.268 110.256 300.268 110.256C300.268 110.256 300.268 110.256 300.268 110.256C300.268 110.256 300.268 110.256 300.268 110.256C300.268 110.256 300.268 110.256 300.268 110.256C300.268 110.256 300.293 106.013 296.05 105.989C296.05 105.989 296.05 105.989 296.05 105.989C296.05 105.989 296.05 105.989 296.05 105.989C296.05 105.989 296.05 105.989 296.05 105.989C296.05 105.989 296.05 105.989 296.05 105.989C296.05 105.989 296.05 105.989 296.05 105.989C296.05 105.989 296.05 105.989 296.05 105.989C296.05 105.989 296.05 105.989 296.05 105.989C296.05 105.989 296.05 105.989 296.05 105.989C296.05 105.989 296.05 105.989 296.05 105.989L300.268 110.256ZM299.418 111.109L300.283 110.241L296.035 106.004L295.17 106.872L299.418 111.109ZM295.827 118.125C296.308 115.467 297.569 113.014 299.446 111.08L295.141 106.901C292.432 109.691 290.616 113.228 289.923 117.058L295.827 118.125ZM296.763 126.029C295.671 123.548 295.345 120.795 295.827 118.125L289.923 117.058C289.228 120.904 289.697 124.87 291.271 128.446L296.763 126.029ZM297.676 129.58C297.567 128.357 297.259 127.157 296.763 126.029L291.271 128.446C291.504 128.975 291.648 129.538 291.699 130.112L297.676 129.58ZM301.776 133.313C299.911 132.074 298.386 130.394 297.331 128.428L292.044 131.264C293.564 134.099 295.764 136.523 298.457 138.311L301.776 133.313ZM309.174 135.566C306.543 135.553 303.971 134.771 301.776 133.313L298.457 138.311C301.627 140.416 305.342 141.548 309.145 141.566L309.174 135.566ZM311.695 135.566H309.16V141.566H311.695V135.566ZM340.905 147.698C333.159 139.931 322.652 135.566 311.695 135.566V141.566C321.056 141.566 330.035 145.295 336.656 151.935L340.905 147.698ZM353 176.977C353 165.997 348.65 155.465 340.905 147.698L336.656 151.935C343.278 158.575 347 167.583 347 176.977H353ZM340.905 206.255C348.65 198.489 353 187.957 353 176.977H347C347 186.371 343.278 195.378 336.656 202.019L340.905 206.255ZM311.695 218.387C322.652 218.387 333.159 214.022 340.905 206.255L336.656 202.019C330.035 208.658 321.056 212.387 311.695 212.387V218.387ZM310.362 218.387H311.695V212.387H310.362V218.387ZM302.978 220.641C305.173 219.183 307.745 218.4 310.376 218.387L310.347 212.387C306.543 212.406 302.829 213.537 299.659 215.642L302.978 220.641ZM298.013 226.608C299.053 224.175 300.779 222.101 302.978 220.641L299.659 215.642C296.484 217.751 293.994 220.743 292.495 224.25L298.013 226.608ZM297.978 226.689L298.013 226.608L292.495 224.25L292.46 224.332L297.978 226.689ZM297.029 234.623C296.546 231.954 296.873 229.201 297.965 226.719L292.473 224.302C290.899 227.878 290.429 231.844 291.125 235.69L297.029 234.623ZM300.648 241.668C298.77 239.734 297.51 237.281 297.029 234.623L291.125 235.69C291.817 239.52 293.634 243.057 296.342 245.847L300.648 241.668ZM301.482 242.504L300.619 241.639L296.371 245.876L297.233 246.741L301.482 242.504ZM310.444 255.943C308.366 250.916 305.321 246.349 301.48 242.503L297.234 246.742C300.517 250.03 303.122 253.936 304.899 258.235L310.444 255.943ZM313.592 271.798C313.592 266.357 312.522 260.969 310.444 255.943L304.899 258.235C306.677 262.534 307.592 267.143 307.592 271.798H313.592ZM310.444 287.653C312.522 282.626 313.592 277.239 313.592 271.798H307.592C307.592 276.452 306.677 281.061 304.899 285.36L310.444 287.653ZM301.484 301.089C305.322 297.244 308.367 292.678 310.444 287.653L304.899 285.36C303.123 289.658 300.519 293.563 297.237 296.85L301.484 301.089ZM288.083 310.074C293.097 307.99 297.651 304.936 301.486 301.087L297.236 296.852C293.957 300.143 290.064 302.753 285.78 304.534L288.083 310.074ZM272.263 313.232C277.692 313.232 283.068 312.159 288.083 310.074L285.78 304.534C281.495 306.315 276.902 307.232 272.263 307.232V313.232ZM256.443 310.074C261.458 312.159 266.834 313.232 272.263 313.232V307.232C267.624 307.232 263.031 306.315 258.746 304.534L256.443 310.074ZM243.037 301.084C246.872 304.934 251.428 307.989 256.443 310.074L258.746 304.534C254.46 302.752 250.567 300.141 247.287 296.849L243.037 301.084ZM242.175 300.22L243.038 301.085L247.286 296.848L246.424 295.983L242.175 300.22ZM235.186 296.623C237.832 297.104 240.276 298.366 242.204 300.249L246.395 295.955C243.612 293.239 240.083 291.415 236.259 290.72L235.186 296.623ZM227.317 297.56C229.788 296.466 232.528 296.14 235.186 296.623L236.259 290.72C232.419 290.022 228.458 290.493 224.888 292.073L227.317 297.56ZM227.236 297.596L227.317 297.56L224.888 292.073L224.807 292.109L227.236 297.596ZM221.257 302.586C222.714 300.38 224.782 298.65 227.206 297.609L224.837 292.096C221.337 293.6 218.352 296.097 216.251 299.279L221.257 302.586ZM219.007 310.015C219.02 307.371 219.802 304.789 221.257 302.586L216.251 299.279C214.152 302.456 213.025 306.178 213.007 309.986L219.007 310.015ZM219.007 312.543V310.001H213.007V312.543H219.007ZM206.912 341.822C214.657 334.055 219.007 323.523 219.007 312.543H213.007C213.007 321.937 209.285 330.945 202.663 337.585L206.912 341.822ZM177.702 353.953C188.659 353.953 199.166 349.588 206.912 341.822L202.663 337.585C196.042 344.225 187.063 347.953 177.702 347.953V353.953ZM148.492 341.822C156.237 349.588 166.744 353.953 177.702 353.953V347.953C168.341 347.953 159.362 344.225 152.74 337.585L148.492 341.822ZM136.397 312.543C136.397 323.523 140.746 334.055 148.492 341.822L152.74 337.585C146.118 330.945 142.397 321.937 142.397 312.543H136.397ZM136.397 311.294V312.543H142.397V311.294H136.397ZM133.877 303.871C135.443 306.067 136.321 308.681 136.398 311.379L142.395 311.208C142.284 307.321 141.02 303.553 138.762 300.387L133.877 303.871ZM127.545 299.032C130.091 299.971 132.297 301.657 133.877 303.871L138.762 300.387C136.484 297.193 133.299 294.759 129.621 293.403L127.545 299.032ZM126.885 298.765C127.102 298.861 127.322 298.95 127.545 299.032L129.621 293.403C129.517 293.365 129.415 293.323 129.313 293.278L126.885 298.765ZM119.016 297.828C121.673 297.345 124.414 297.671 126.885 298.765L129.313 293.278C125.743 291.698 121.783 291.227 117.943 291.925L119.016 297.828ZM111.997 301.454C113.926 299.572 116.37 298.309 119.016 297.828L117.943 291.925C114.118 292.62 110.589 294.444 107.806 297.161L111.997 301.454ZM111.974 301.477C111.983 301.468 111.99 301.461 111.996 301.455L107.807 297.16C107.794 297.172 107.782 297.184 107.772 297.194L111.974 301.477ZM111.165 302.289L111.998 301.453L107.748 297.218L106.915 298.054L111.165 302.289ZM97.7589 311.279C102.774 309.195 107.329 306.139 111.165 302.289L106.914 298.054C103.635 301.346 99.7412 303.957 95.4558 305.739L97.7589 311.279ZM81.9387 314.437C87.368 314.437 92.7439 313.364 97.7589 311.279L95.4558 305.739C91.1705 307.52 86.5773 308.437 81.9387 308.437V314.437ZM66.1186 311.279C71.1336 313.364 76.5094 314.437 81.9387 314.437V308.437C77.3002 308.437 72.707 307.52 68.4217 305.739L66.1186 311.279ZM52.7124 302.289C56.5482 306.139 61.1037 309.195 66.1186 311.279L68.4216 305.739C64.1363 303.957 60.2425 301.346 56.9632 298.054L52.7124 302.289ZM43.7574 288.858C45.8341 293.881 48.8775 298.446 52.7143 302.291L56.9614 298.053C53.6813 294.765 51.0785 290.862 49.3022 286.565L43.7574 288.858ZM40.6099 273.003C40.6099 278.444 41.6794 283.831 43.7574 288.858L49.3022 286.565C47.5249 282.266 46.6099 277.657 46.6099 273.003H40.6099ZM43.7574 257.148C41.6794 262.174 40.6099 267.562 40.6099 273.003H46.6099C46.6099 268.348 47.5249 263.739 49.3022 259.44L43.7574 257.148ZM52.7213 243.708C48.8812 247.554 45.8354 252.121 43.7574 257.148L49.3022 259.44C51.0796 255.141 53.6844 251.235 56.9674 247.947L52.7213 243.708ZM53.5828 242.844L52.7201 243.709L56.9685 247.946L57.8312 247.081L53.5828 242.844ZM57.1726 235.828C56.6919 238.486 55.4315 240.939 53.5543 242.873L57.8596 247.052C60.5681 244.262 62.3844 240.725 63.0769 236.895L57.1726 235.828ZM56.2372 227.924C57.3294 230.405 57.6553 233.158 57.1726 235.828L63.0769 236.895C63.7723 233.05 63.3029 229.083 61.7289 225.507L56.2372 227.924ZM56.2015 227.843L56.2373 227.924L61.7288 225.507L61.693 225.425L56.2015 227.843ZM51.224 221.846C53.4226 223.306 55.1486 225.38 56.1887 227.813L61.7059 225.455C60.2071 221.948 57.7182 218.956 54.5432 216.847L51.224 221.846ZM43.8256 219.592C46.4572 219.605 49.0285 220.388 51.224 221.846L54.5432 216.847C51.3731 214.742 47.6583 213.611 43.8548 213.592L43.8256 219.592ZM41.3052 219.592H43.8402V213.592H41.3052V219.592ZM12.0951 207.46C19.8407 215.227 30.3477 219.592 41.3052 219.592V213.592C31.9443 213.592 22.9652 209.863 16.3436 203.224L12.0951 207.46ZM0 178.182C0 189.162 4.34979 199.694 12.0951 207.46L16.3436 203.224C9.72164 196.583 6 187.576 6 178.182H0ZM12.0951 148.903C4.34979 156.67 0 167.202 0 178.182H6C6 168.788 9.72164 159.78 16.3436 153.14L12.0951 148.903ZM41.3052 136.771C30.3477 136.771 19.8407 141.136 12.0951 148.903L16.3436 153.14C22.9652 146.5 31.9443 142.771 41.3052 142.771V136.771ZM42.5508 136.771H41.3052V142.771H42.5508V136.771ZM49.9418 134.248C47.754 135.817 45.1506 136.695 42.4647 136.772L42.637 142.77C46.519 142.658 50.28 141.389 53.4386 139.124L49.9418 134.248ZM54.7692 127.895C53.8315 130.452 52.149 132.665 49.9418 134.248L53.4386 139.124C56.6251 136.838 59.051 133.646 60.4023 129.961L54.7692 127.895ZM55.0355 127.234C54.9398 127.452 54.851 127.672 54.7692 127.895L60.4022 129.961C60.4406 129.857 60.4823 129.753 60.5271 129.651L55.0355 127.234ZM55.9709 119.331C56.4536 122 56.1276 124.753 55.0355 127.234L60.5271 129.651C62.1012 126.075 62.5705 122.109 61.8751 118.263L55.9709 119.331ZM52.3524 112.285C54.2297 114.219 55.4902 116.672 55.9709 119.331L61.8751 118.263C61.1826 114.433 59.3662 110.897 56.6576 108.106L52.3524 112.285ZM51.5184 111.449L52.3807 112.314L56.6292 108.077L55.7668 107.213L51.5184 111.449ZM42.5556 98.0106C44.6336 103.037 47.6795 107.604 51.5195 111.451L55.7656 107.211C52.4827 103.923 49.8779 100.018 48.1005 95.7184L42.5556 98.0106ZM39.4082 82.1556C39.4082 87.5964 40.4777 92.9841 42.5556 98.0106L48.1005 95.7184C46.3231 91.419 45.4082 86.8102 45.4082 82.1556H39.4082ZM42.5556 66.3006C40.4777 71.3271 39.4082 76.7148 39.4082 82.1556H45.4082C45.4082 77.501 46.3231 72.8922 48.1005 68.5928L42.5556 66.3006ZM51.516 52.8642C47.6777 56.7097 44.633 61.2755 42.5556 66.3006L48.1005 68.5928C49.8773 64.2948 52.4811 60.3905 55.7626 57.1028L51.516 52.8642ZM64.9169 43.8792C59.9035 45.9632 55.3492 49.0171 51.5142 52.866L55.7645 57.101C59.0431 53.8104 62.9358 51.2004 67.2199 49.4196L64.9169 43.8792ZM80.737 40.7215C75.3077 40.7215 69.9319 41.7946 64.9169 43.8792L67.2199 49.4196C71.5053 47.6383 76.0985 46.7215 80.737 46.7215V40.7215ZM96.5571 43.8792C91.5422 41.7946 86.1663 40.7215 80.737 40.7215V46.7215C85.3755 46.7215 89.9687 47.6383 94.2541 49.4196L96.5571 43.8792ZM109.963 52.8695C106.128 49.0189 101.572 45.9638 96.5571 43.8792L94.2541 49.4196C98.5395 51.2009 102.433 53.812 105.713 57.104L109.963 52.8695ZM110.825 53.7331L109.962 52.8683L105.714 57.1052L106.576 57.9699L110.825 53.7331ZM117.814 57.3301C115.168 56.8489 112.724 55.5869 110.796 53.7046L106.605 57.9984C109.388 60.7146 112.917 62.538 116.741 63.2333L117.814 57.3301ZM125.683 56.3935C123.212 57.4871 120.472 57.8132 117.814 57.3301L116.741 63.2333C120.581 63.9315 124.542 63.46 128.112 61.8802L125.683 56.3935ZM129.231 55.4764C128.008 55.5858 126.81 55.8949 125.683 56.3935L128.112 61.8802C128.637 61.6476 129.196 61.5035 129.766 61.4524L129.231 55.4764ZM132.945 51.3674C131.709 53.2389 130.033 54.7675 128.074 55.8239L130.922 61.1049C133.751 59.5791 136.169 57.3727 137.951 54.674L132.945 51.3674ZM135.195 43.9379C135.182 46.5819 134.4 49.1641 132.945 51.3674L137.951 54.674C140.049 51.4969 141.176 47.7756 141.195 43.9669L135.195 43.9379ZM135.195 41.4104V43.9524H141.195V41.4104H135.195ZM147.29 12.1317C139.545 19.8983 135.195 30.4303 135.195 41.4104H141.195C141.195 32.0163 144.916 23.0087 151.538 16.3686L147.29 12.1317ZM94.0255 68.8173L94.9265 69.7214L99.1766 65.4862L98.2757 64.5821L94.0255 68.8173ZM68.4134 96.4615L67.4444 95.4899L63.196 99.7267L64.1649 100.698L68.4134 96.4615ZM43.8918 197.023H41.3052V203.023H43.8918V197.023ZM68.6485 259.666L69.5502 258.763L65.3034 254.524L64.4018 255.428L68.6485 259.666ZM96.1938 285.372L95.2248 286.344L99.4733 290.58L100.442 289.609L96.1938 285.372ZM258.974 285.136L258.074 284.232L253.823 288.467L254.724 289.371L258.974 285.136ZM284.587 257.492L285.556 258.463L289.804 254.227L288.835 253.255L284.587 257.492ZM256.806 68.5814L257.775 67.6098L253.527 63.373L252.558 64.3446L256.806 68.5814Z" fill="white" mask="url(#path-2-outside-1_532_517)"/>
</svg>
