<svg width="161" height="139" viewBox="0 0 161 139" fill="none" xmlns="http://www.w3.org/2000/svg">
<path fill-rule="evenodd" clip-rule="evenodd" d="M109.469 77.8011C114.917 74.161 121.322 72.2181 127.874 72.2181H127.883L127.892 72.2182C136.664 72.2457 145.07 75.7429 151.273 81.9462C157.476 88.1494 160.974 96.5549 161.001 105.328L161.001 105.337V105.346C161.001 111.898 159.058 118.303 155.418 123.75C151.778 129.198 146.604 133.444 140.551 135.952C134.498 138.459 127.837 139.115 121.411 137.837C114.985 136.558 109.082 133.403 104.449 128.77C99.816 124.137 96.6609 118.235 95.3826 111.809C94.1044 105.382 94.7604 98.7216 97.2678 92.6683C99.7751 86.6151 104.021 81.4412 109.469 77.8011ZM127.865 83.7408C123.595 83.7426 119.421 85.0096 115.871 87.3819C112.318 89.7558 109.549 93.1301 107.913 97.0778C106.278 101.026 105.85 105.37 106.684 109.561C107.518 113.752 109.575 117.601 112.597 120.623C115.618 123.644 119.468 125.702 123.659 126.536C127.85 127.369 132.194 126.941 136.142 125.306C140.089 123.671 143.464 120.902 145.838 117.349C148.21 113.798 149.477 109.625 149.479 105.355C149.458 99.6288 147.175 94.143 143.125 90.0939C139.076 86.0448 133.591 83.7612 127.865 83.7408Z" fill="white"/>
<path fill-rule="evenodd" clip-rule="evenodd" d="M14.7229 77.8011C20.1707 74.161 26.5756 72.2181 33.1276 72.2181H33.1366L33.1457 72.2182C41.9184 72.2457 50.3239 75.7429 56.5271 81.9462C62.7304 88.1494 66.2275 96.5549 66.2551 105.328L66.2551 105.337V105.346C66.2551 111.898 64.3123 118.303 60.6721 123.75C57.032 129.198 51.8582 133.444 45.8049 135.952C39.7517 138.459 33.0908 139.115 26.6647 137.837C20.2386 136.558 14.3358 133.403 9.70286 128.77C5.06988 124.137 1.91479 118.235 0.636552 111.809C-0.641683 105.382 0.0143534 98.7216 2.5217 92.6683C5.02905 86.6151 9.2751 81.4412 14.7229 77.8011ZM33.1186 83.7408C28.8487 83.7426 24.6749 85.0096 21.1245 87.3819C17.5716 89.7558 14.8024 93.1301 13.1672 97.0778C11.532 101.026 11.1041 105.37 11.9378 109.561C12.7714 113.752 14.8291 117.601 17.8506 120.623C20.8721 123.644 24.7217 125.702 28.9127 126.536C33.1036 127.369 37.4476 126.941 41.3954 125.306C45.3432 123.671 48.7174 120.902 51.0914 117.349C53.4637 113.798 54.7307 109.625 54.7325 105.355C54.7121 99.6288 52.4285 94.143 48.3794 90.0939C44.3303 86.0448 38.8445 83.7612 33.1186 83.7408Z" fill="white"/>
<path fill-rule="evenodd" clip-rule="evenodd" d="M86.8972 19.915C88.7403 20.129 90.3676 21.2196 91.2687 22.8448L104.021 45.8444H120.789C123.97 45.8444 126.548 48.428 126.548 51.615C126.548 54.802 123.97 57.3856 120.789 57.3856H100.632C98.5405 57.3856 96.6134 56.2494 95.5977 54.4174L85.0974 35.479L66.236 56.268L83.635 67.7089C85.2572 68.7756 86.2343 70.5892 86.2343 72.5334V103.55C86.2343 106.737 83.6559 109.321 80.4752 109.321C77.2946 109.321 74.7161 106.737 74.7161 103.55V75.6487L54.2791 62.2101C52.8705 61.2839 51.9374 59.7861 51.7255 58.1114C51.5136 56.4367 52.0441 54.753 53.1774 53.5039L81.9729 21.7655C83.221 20.3899 85.0541 19.701 86.8972 19.915Z" fill="white"/>
<path d="M103.672 23.1892C105.201 23.1945 106.717 22.897 108.13 22.314C109.544 21.7309 110.828 20.8738 111.908 19.7923C112.988 18.7107 113.842 17.4262 114.422 16.0129C115.001 14.5997 115.294 13.0857 115.284 11.5586C115.301 10.0391 115.015 8.53148 114.441 7.12391C113.868 5.71634 113.019 4.43706 111.944 3.36088C110.87 2.28469 109.591 1.43319 108.183 0.856184C106.775 0.279174 105.266 -0.0117705 103.744 0.000364545C102.22 -0.00439359 100.709 0.290792 99.2978 0.869071C97.8871 1.44735 96.6043 2.2974 95.5226 3.37068C93.3381 5.53826 92.1054 8.48353 92.0958 11.5586C92.0861 14.6336 93.3004 17.5865 95.4713 19.7677C97.6422 21.9489 100.592 23.1796 103.672 23.1892Z" fill="white"/>
</svg>
