<svg width="285" height="247" viewBox="0 0 285 247" fill="none" xmlns="http://www.w3.org/2000/svg">
<path fill-rule="evenodd" clip-rule="evenodd" d="M91.2219 138.644C81.5783 132.201 70.2405 128.761 58.6422 128.761H58.6262L58.6101 128.761C43.0809 128.81 28.2016 135.001 17.2206 145.982C6.23971 156.963 0.049095 171.842 0.000280662 187.371L0.000230865 187.387V187.403C0.000230865 199.002 3.43953 210.339 9.88319 219.983C16.3268 229.627 25.4855 237.143 36.2009 241.581C46.9163 246.02 58.7073 247.181 70.0827 244.918C81.4581 242.656 91.9071 237.071 100.108 228.869C108.31 220.668 113.895 210.219 116.157 198.844C118.42 187.468 117.259 175.677 112.82 164.962C108.382 154.246 100.866 145.088 91.2219 138.644ZM58.6582 149.158C66.2167 149.162 73.6049 151.404 79.8898 155.604C86.1792 159.806 91.0811 165.779 93.9757 172.768C96.8704 179.756 97.6278 187.446 96.1521 194.864C94.6764 202.283 91.0339 209.098 85.6853 214.446C80.3367 219.795 73.5221 223.437 66.1034 224.913C58.6846 226.389 50.9949 225.631 44.0066 222.737C37.0182 219.842 31.0452 214.94 26.8428 208.651C22.6434 202.366 20.4006 194.978 20.3974 187.419C20.4335 177.283 24.476 167.572 31.6436 160.405C38.8112 153.237 48.5221 149.195 58.6582 149.158Z" fill="white"/>
<path fill-rule="evenodd" clip-rule="evenodd" d="M258.938 138.644C249.294 132.201 237.956 128.761 226.358 128.761H226.342L226.326 128.761C210.797 128.81 195.917 135.001 184.936 145.982C173.956 156.963 167.765 171.842 167.716 187.371L167.716 187.387V187.403C167.716 199.002 171.155 210.339 177.599 219.983C184.043 229.627 193.201 237.143 203.917 241.581C214.632 246.02 226.423 247.181 237.798 244.918C249.174 242.656 259.623 237.071 267.824 228.869C276.025 220.668 281.61 210.219 283.873 198.844C286.136 187.468 284.975 175.677 280.536 164.962C276.098 154.246 268.581 145.088 258.938 138.644ZM226.374 149.158C233.933 149.162 241.321 151.404 247.606 155.604C253.895 159.806 258.797 165.779 261.692 172.768C264.586 179.756 265.344 187.446 263.868 194.864C262.392 202.283 258.75 209.098 253.401 214.446C248.053 219.795 241.238 223.437 233.819 224.913C226.4 226.389 218.711 225.631 211.722 222.737C204.734 219.842 198.761 214.94 194.559 208.651C190.359 202.366 188.116 194.978 188.113 187.419C188.149 177.283 192.192 167.572 199.359 160.405C206.527 153.237 216.238 149.195 226.374 149.158Z" fill="white"/>
<path fill-rule="evenodd" clip-rule="evenodd" d="M131.177 36.1749C127.914 36.5537 125.034 38.4844 123.439 41.3612L100.865 82.0747H71.1824C65.552 82.0747 60.9877 86.6482 60.9877 92.2898C60.9877 97.9314 65.552 102.505 71.1824 102.505H106.864C110.566 102.505 113.977 100.494 115.775 97.2507L134.363 63.7262L167.751 100.527L136.952 120.779C134.08 122.667 132.35 125.878 132.35 129.319V184.225C132.35 189.867 136.915 194.44 142.545 194.44C148.175 194.44 152.74 189.867 152.74 184.225V134.834L188.917 111.045C191.411 109.406 193.062 106.754 193.438 103.79C193.813 100.825 192.873 97.8446 190.867 95.6335L139.894 39.4507C137.685 37.0155 134.44 35.7961 131.177 36.1749Z" fill="white"/>
<path d="M101.484 41.971C98.7761 41.9804 96.0935 41.4538 93.5911 40.4217C91.0887 39.3895 88.816 37.8723 86.9045 35.9578C84.993 34.0433 83.4805 31.7694 82.4546 29.2676C81.4287 26.7659 80.9096 24.0859 80.9275 21.3826C80.8975 18.6928 81.4049 16.0241 82.4201 13.5324C83.4353 11.0407 84.9378 8.77618 86.8398 6.87113C88.7418 4.96608 91.0052 3.45877 93.4975 2.43736C95.9898 1.41594 98.6611 0.900917 101.355 0.922398C104.055 0.913975 106.729 1.43651 109.226 2.46017C111.724 3.48383 113.995 4.98857 115.909 6.88848C119.776 10.7255 121.958 15.9392 121.975 21.3826C121.993 26.826 119.843 32.0531 116 35.9142C112.157 39.7753 106.935 41.954 101.484 41.971Z" fill="white"/>
</svg>
