<svg width="100" height="100" viewBox="0 0 100 100" fill="none" xmlns="http://www.w3.org/2000/svg">
<path fill-rule="evenodd" clip-rule="evenodd" d="M35.2087 18.827C36.1433 17.0781 37.8487 16 39.6962 16H80.0821C89.4341 16 97 24.3677 97 34.669V42.0873C97 50.2295 90.8105 56.7239 83.4229 56.2887C75.8933 55.8451 70.0081 48.9783 70.0081 40.6757V36.6065C70.0081 33.4456 72.3312 30.8663 75.2161 30.8663C78.1009 30.8663 80.424 33.4456 80.424 36.6065V40.6757C80.424 42.8932 81.9935 44.7079 83.9788 44.8248C85.3855 44.9077 86.584 43.6686 86.584 42.0873V34.669C86.584 30.6894 83.6645 27.4803 80.0821 27.4803H51.5266C50.1705 27.4803 49.3093 29.0662 49.9596 30.3658L73.0368 76.4866C74.4222 79.2554 73.516 82.7452 70.9981 84.281C68.4749 85.82 65.3042 84.8051 63.9159 82.0307L35.1357 24.5122C34.247 22.7361 34.2747 20.5748 35.2087 18.827ZM7.33791 34.3259C4.94215 34.3259 3 36.5536 3 39.3016C3 42.0497 4.94215 44.2774 7.33791 44.2774L32.4617 44.2774C34.8574 44.2774 36.7996 42.0497 36.7996 39.3016C36.7996 36.5536 34.8574 34.3259 32.4617 34.3259L7.33791 34.3259ZM14.9183 49.1168C12.5225 49.1168 10.5804 51.3446 10.5804 54.0926C10.5804 56.8406 12.5225 59.0684 14.9183 59.0684H40.0421C42.4378 59.0684 44.38 56.8406 44.38 54.0926C44.38 51.3446 42.4378 49.1168 40.0421 49.1168L14.9183 49.1168ZM18.1608 68.9978C18.1608 66.2498 20.1029 64.0221 22.4987 64.0221L47.6224 64.0221C50.0182 64.0221 51.9604 66.2498 51.9604 68.9978C51.9604 71.7459 50.0182 73.9736 47.6224 73.9736H22.4987C20.1029 73.9736 18.1608 71.7459 18.1608 68.9978Z" fill="url(#paint0_linear_525_558)"/>
<defs>
<linearGradient id="paint0_linear_525_558" x1="3" y1="43.3041" x2="95.8545" y2="43.3041" gradientUnits="userSpaceOnUse">
<stop stop-color="#31B15C"/>
<stop offset="1" stop-color="#D4E972"/>
</linearGradient>
</defs>
</svg>
