<svg width="52" height="52" viewBox="0 0 52 52" fill="none" xmlns="http://www.w3.org/2000/svg">
<path d="M43.4631 19.6563L42.9651 19.9732L43.0019 20.5624L43.3596 26.285L37.1306 21.2239L36.855 21H36.5H30H29.4648L29.1679 21.4453L25.952 26.2693L22.3 21.4L22 21H21.5H15.5H15.145L14.8694 21.2239L8.64039 26.285L8.99805 20.5624L9.03003 20.0507L8.63324 19.726L7.31121 18.6444C4.91794 16.6863 3.57154 13.7264 3.66812 10.6357C3.83592 5.26603 8.23735 1 13.6096 1H38.2711C43.706 1 48.1561 5.32108 48.3158 10.7536C48.42 14.2931 46.6536 17.626 43.6662 19.5271L43.4631 19.6563Z" stroke="#31B15C" stroke-width="2"/>
<path d="M41.5 6.5C43.5 8 45.5 11.5 42 15.5" stroke="#31B15C" stroke-width="2" stroke-linecap="round"/>
<path d="M31.0005 8.99996C30.2005 5.39996 27.3339 6.16663 26.0005 6.99996C24.5004 6.00001 21.5002 5.5 21.0005 8.99997C20.5008 12.5001 23.8337 14.3333 26.0004 16C28.0004 15 31.8005 12.6 31.0005 8.99996Z" stroke="#31B15C" stroke-width="2" stroke-linecap="round"/>
<circle cx="43" cy="36" r="4" stroke="#31B15C" stroke-width="2"/>
<circle cx="26" cy="36" r="4" stroke="#31B15C" stroke-width="2"/>
<circle cx="9" cy="36" r="4" stroke="#31B15C" stroke-width="2"/>
<path d="M35 47C35 43.6863 37.6863 41 41 41H45C48.3137 41 51 43.6863 51 47V51H35V47Z" stroke="#31B15C" stroke-width="2"/>
<path d="M18 47C18 43.6863 20.6863 41 24 41H28C31.3137 41 34 43.6863 34 47V51H18V47Z" stroke="#31B15C" stroke-width="2"/>
<path d="M1 47C1 43.6863 3.68629 41 7 41H11C14.3137 41 17 43.6863 17 47V51H1V47Z" stroke="#31B15C" stroke-width="2"/>
</svg>
