<svg width="42" height="42" viewBox="0 0 42 42" fill="none" xmlns="http://www.w3.org/2000/svg">
<path d="M20.9995 26.4546C24.0119 26.4546 26.454 24.0125 26.454 21C26.454 17.9876 24.0119 15.5455 20.9995 15.5455C17.987 15.5455 15.5449 17.9876 15.5449 21C15.5449 24.0125 17.987 26.4546 20.9995 26.4546Z" stroke="#31B15C" stroke-width="2" stroke-linecap="round" stroke-linejoin="round"/>
<path d="M34.4545 26.4545C34.2125 27.0029 34.1403 27.6113 34.2473 28.2011C34.3542 28.7909 34.6354 29.3351 35.0545 29.7636L35.1636 29.8727C35.5017 30.2104 35.7699 30.6115 35.9529 31.0529C36.1359 31.4944 36.2301 31.9676 36.2301 32.4455C36.2301 32.9233 36.1359 33.3965 35.9529 33.838C35.7699 34.2794 35.5017 34.6805 35.1636 35.0182C34.8259 35.3563 34.4249 35.6245 33.9834 35.8075C33.542 35.9905 33.0688 36.0847 32.5909 36.0847C32.113 36.0847 31.6398 35.9905 31.1984 35.8075C30.757 35.6245 30.3559 35.3563 30.0182 35.0182L29.9091 34.9091C29.4806 34.4899 28.9363 34.2088 28.3465 34.1018C27.7567 33.9949 27.1484 34.0671 26.6 34.3091C26.0622 34.5396 25.6036 34.9223 25.2806 35.4101C24.9575 35.8979 24.7842 36.4695 24.7818 37.0545V37.3636C24.7818 38.3281 24.3987 39.253 23.7168 39.9349C23.0348 40.6169 22.1099 41 21.1455 41C20.181 41 19.2561 40.6169 18.5742 39.9349C17.8922 39.253 17.5091 38.3281 17.5091 37.3636V37.2C17.495 36.5982 17.3002 36.0145 16.95 35.5249C16.5998 35.0353 16.1104 34.6623 15.5455 34.4545C14.9971 34.2125 14.3887 34.1403 13.7989 34.2473C13.2091 34.3542 12.6649 34.6354 12.2364 35.0545L12.1273 35.1636C11.7896 35.5017 11.3885 35.7699 10.9471 35.9529C10.5056 36.1359 10.0324 36.2301 9.55455 36.2301C9.07667 36.2301 8.60348 36.1359 8.16204 35.9529C7.72059 35.7699 7.31954 35.5017 6.98182 35.1636C6.64372 34.8259 6.37551 34.4249 6.19251 33.9834C6.00951 33.542 5.91532 33.0688 5.91532 32.5909C5.91532 32.113 6.00951 31.6398 6.19251 31.1984C6.37551 30.757 6.64372 30.3559 6.98182 30.0182L7.09091 29.9091C7.51007 29.4806 7.79125 28.9363 7.89819 28.3465C8.00513 27.7567 7.93294 27.1484 7.69091 26.6C7.46043 26.0622 7.07774 25.6036 6.58994 25.2806C6.10214 24.9575 5.53052 24.7842 4.94545 24.7818H4.63636C3.67194 24.7818 2.74702 24.3987 2.06507 23.7168C1.38312 23.0348 1 22.1099 1 21.1455C1 20.181 1.38312 19.2561 2.06507 18.5742C2.74702 17.8922 3.67194 17.5091 4.63636 17.5091H4.8C5.40181 17.495 5.98546 17.3002 6.47509 16.95C6.96472 16.5998 7.33766 16.1104 7.54545 15.5455C7.78748 14.9971 7.85968 14.3887 7.75274 13.7989C7.64579 13.2091 7.36461 12.6649 6.94545 12.2364L6.83636 12.1273C6.49827 11.7896 6.23005 11.3885 6.04706 10.9471C5.86406 10.5056 5.76987 10.0324 5.76987 9.55455C5.76987 9.07667 5.86406 8.60348 6.04706 8.16204C6.23005 7.72059 6.49827 7.31954 6.83636 6.98182C7.17408 6.64372 7.57513 6.37551 8.01658 6.19251C8.45803 6.00951 8.93122 5.91532 9.40909 5.91532C9.88697 5.91532 10.3602 6.00951 10.8016 6.19251C11.243 6.37551 11.6441 6.64372 11.9818 6.98182L12.0909 7.09091C12.5194 7.51007 13.0637 7.79125 13.6535 7.89819C14.2433 8.00513 14.8516 7.93294 15.4 7.69091H15.5455C16.0832 7.46043 16.5418 7.07774 16.8649 6.58994C17.1879 6.10214 17.3613 5.53052 17.3636 4.94545V4.63636C17.3636 3.67194 17.7468 2.74702 18.4287 2.06507C19.1107 1.38312 20.0356 1 21 1C21.9644 1 22.8893 1.38312 23.5713 2.06507C24.2532 2.74702 24.6364 3.67194 24.6364 4.63636V4.8C24.6387 5.38507 24.8121 5.95668 25.1351 6.44448C25.4582 6.93228 25.9168 7.31498 26.4545 7.54545C27.0029 7.78748 27.6113 7.85968 28.2011 7.75274C28.7909 7.64579 29.3351 7.36461 29.7636 6.94545L29.8727 6.83636C30.2104 6.49827 30.6115 6.23005 31.0529 6.04706C31.4944 5.86406 31.9676 5.76987 32.4455 5.76987C32.9233 5.76987 33.3965 5.86406 33.838 6.04706C34.2794 6.23005 34.6805 6.49827 35.0182 6.83636C35.3563 7.17408 35.6245 7.57513 35.8075 8.01658C35.9905 8.45803 36.0847 8.93122 36.0847 9.40909C36.0847 9.88697 35.9905 10.3602 35.8075 10.8016C35.6245 11.243 35.3563 11.6441 35.0182 11.9818L34.9091 12.0909C34.4899 12.5194 34.2088 13.0637 34.1018 13.6535C33.9949 14.2433 34.0671 14.8516 34.3091 15.4V15.5455C34.5396 16.0832 34.9223 16.5418 35.4101 16.8649C35.8979 17.1879 36.4695 17.3613 37.0545 17.3636H37.3636C38.3281 17.3636 39.253 17.7468 39.9349 18.4287C40.6169 19.1107 41 20.0356 41 21C41 21.9644 40.6169 22.8893 39.9349 23.5713C39.253 24.2532 38.3281 24.6364 37.3636 24.6364H37.2C36.6149 24.6387 36.0433 24.8121 35.5555 25.1351C35.0677 25.4582 34.685 25.9168 34.4545 26.4545Z" stroke="#31B15C" stroke-width="2" stroke-linecap="round" stroke-linejoin="round"/>
</svg>
