<svg width="335" height="54" viewBox="0 0 335 54" fill="none" xmlns="http://www.w3.org/2000/svg">
<path d="M314.401 53.8655C310.643 53.8655 307.53 53.0928 305.062 51.5475C302.594 49.9861 300.858 47.7809 299.855 44.9318C298.868 42.0665 298.701 38.6782 299.354 34.7667C299.991 30.9517 301.272 27.6036 303.199 24.7223C305.142 21.841 307.578 19.5955 310.508 17.9858C313.438 16.3761 316.702 15.5713 320.3 15.5713C322.721 15.5713 324.91 15.9657 326.869 16.7544C328.843 17.527 330.483 18.7021 331.789 20.2796C333.095 21.841 333.986 23.7967 334.464 26.1469C334.958 28.497 334.95 31.2495 334.44 34.4045L333.986 37.2295L303.032 37.2295L304.011 30.8551L325.412 30.8551C325.651 29.3742 325.555 28.0624 325.125 26.9195C324.695 25.7766 323.979 24.8833 322.975 24.2394C321.972 23.5794 320.738 23.2494 319.273 23.2494C317.777 23.2494 316.375 23.6197 315.07 24.3601C313.764 25.1006 312.665 26.0744 311.774 27.2817C310.898 28.4728 310.333 29.7686 310.078 31.169L308.955 37.4951C308.637 39.4428 308.7 41.0605 309.146 42.3482C309.608 43.636 310.404 44.6018 311.535 45.2456C312.665 45.8734 314.098 46.1873 315.834 46.1873C316.965 46.1873 318.023 46.0263 319.011 45.7044C320.014 45.3825 320.905 44.9076 321.686 44.2798C322.466 43.636 323.103 42.8392 323.596 41.8895L332.888 42.5172C332.028 44.803 330.722 46.799 328.97 48.5052C327.219 50.1954 325.109 51.5153 322.641 52.465C320.189 53.3986 317.442 53.8655 314.401 53.8655Z" fill="#31B15C"/>
<path d="M305.249 16.0513L286.309 53.1382H274.844L268.133 16.0513H278.499L281.747 42.5868H282.129L294.095 16.0513L305.249 16.0513Z" fill="#31B15C"/>
<path d="M242.975 53.8413C240.65 53.8413 238.636 53.4308 236.932 52.6099C235.244 51.7729 234.002 50.5334 233.206 48.8916C232.41 47.2497 232.211 45.2134 232.609 42.7828C232.959 40.7225 233.62 39.0001 234.591 37.6158C235.579 36.2154 236.781 35.0886 238.198 34.2355C239.615 33.3823 241.184 32.7304 242.903 32.2797C244.639 31.829 246.43 31.5232 248.277 31.3622C250.411 31.1368 252.146 30.9195 253.484 30.7103C254.837 30.501 255.849 30.2032 256.517 29.8169C257.186 29.4145 257.592 28.8189 257.735 28.0302V27.8853C257.974 26.3722 257.696 25.1971 256.9 24.3601C256.119 23.507 254.869 23.0804 253.15 23.0804C251.334 23.0804 249.79 23.4828 248.516 24.2877C247.258 25.0925 246.358 26.1147 245.817 27.3541L236.55 26.5815C237.378 24.3279 238.628 22.3802 240.3 20.7383C241.988 19.0804 244.018 17.8087 246.39 16.9234C248.763 16.022 251.422 15.5713 254.368 15.5713C256.406 15.5713 258.309 15.8127 260.076 16.2956C261.86 16.7785 263.396 17.527 264.686 18.5411C265.992 19.5552 266.931 20.8591 267.504 22.4526C268.093 24.0301 268.213 25.9215 267.863 28.1268L263.73 53.1411L254.081 53.1411L254.941 47.9982H254.654C253.874 49.1572 252.919 50.1793 251.788 51.0646C250.658 51.9338 249.36 52.618 247.895 53.117C246.43 53.5999 244.79 53.8413 242.975 53.8413ZM247.059 46.7426C248.54 46.7426 249.901 46.4449 251.143 45.8493C252.401 45.2376 253.436 44.4167 254.248 43.3865C255.076 42.3563 255.602 41.1893 255.825 39.8854L256.446 35.9498C256.127 36.159 255.665 36.3441 255.06 36.5051C254.471 36.6661 253.826 36.819 253.126 36.9639C252.441 37.0926 251.748 37.2134 251.048 37.326C250.347 37.4226 249.718 37.5192 249.161 37.6158C247.935 37.7929 246.836 38.0745 245.865 38.4609C244.894 38.8472 244.105 39.3703 243.5 40.0303C242.895 40.6742 242.521 41.479 242.378 42.4448C242.155 43.8452 242.481 44.9157 243.357 45.6561C244.249 46.3805 245.483 46.7426 247.059 46.7426Z" fill="#31B15C"/>
<path d="M188.019 53.1382L184.15 16.0513H194.444L196.021 40.969H196.355L206.387 16.0513H216.49L218.401 40.8242H218.711L228.408 16.0513H238.679L222.604 53.1382H211.832L209.348 29.814H208.895L198.767 53.1382H188.019Z" fill="#31B15C"/>
<path d="M162.785 53.8655C159.027 53.8655 155.914 53.0928 153.446 51.5475C150.978 49.9861 149.242 47.7809 148.239 44.9318C147.252 42.0665 147.085 38.6782 147.738 34.7667C148.375 30.9517 149.656 27.6036 151.583 24.7223C153.526 21.841 155.962 19.5955 158.892 17.9858C161.822 16.3761 165.086 15.5713 168.684 15.5713C171.105 15.5713 173.294 15.9657 175.253 16.7544C177.227 17.527 178.867 18.7021 180.173 20.2796C181.479 21.841 182.37 23.7967 182.848 26.1469C183.342 28.497 183.334 31.2495 182.824 34.4045L182.37 37.2295L151.416 37.2295L152.395 30.8551L173.796 30.8551C174.035 29.3742 173.939 28.0624 173.509 26.9195C173.079 25.7766 172.363 24.8833 171.36 24.2394C170.356 23.5794 169.122 23.2494 167.657 23.2494C166.161 23.2494 164.759 23.6197 163.454 24.3601C162.148 25.1006 161.049 26.0744 160.158 27.2817C159.282 28.4728 158.717 29.7686 158.462 31.169L157.339 37.4951C157.021 39.4428 157.085 41.0605 157.53 42.3482C157.992 43.636 158.788 44.6018 159.919 45.2456C161.049 45.8734 162.482 46.1873 164.218 46.1873C165.349 46.1873 166.408 46.0263 167.395 45.7044C168.398 45.3825 169.29 44.9076 170.07 44.2798C170.85 43.636 171.487 42.8392 171.981 41.8895L181.272 42.5172C180.412 44.803 179.106 46.799 177.355 48.5052C175.603 50.1954 173.493 51.5153 171.025 52.465C168.573 53.3986 165.826 53.8655 162.785 53.8655Z" fill="#31B15C"/>
<path d="M124.868 42.4651L126.898 30.1269H128.379L142.495 16.0503H154.174L135.353 34.6903H132.917L124.868 42.4651ZM113.905 53.1372L122.025 3.68799L132.2 3.68799L124.08 53.1372H113.905ZM136.834 53.1372L128.713 36.9841L136.667 29.7164L148.752 53.1372H136.834Z" fill="#31B15C"/>
<path d="M100.961 53.1389L107.076 16.052H117.25L111.136 53.1389H100.961ZM113.214 11.223C111.701 11.223 110.451 10.7159 109.464 9.70184C108.493 8.67165 108.095 7.44829 108.27 6.03178C108.445 4.58307 109.13 3.35972 110.324 2.36172C111.518 1.34762 112.872 0.840576 114.384 0.840576C115.897 0.840576 117.131 1.34762 118.086 2.36172C119.042 3.35972 119.44 4.58307 119.281 6.03178C119.121 7.44829 118.445 8.67165 117.25 9.70184C116.072 10.7159 114.727 11.223 113.214 11.223Z" fill="#31B15C"/>
<path d="M63.7727 53.1372L71.8934 3.68799L82.0683 3.68799L79.0588 22.2797H79.3454C79.9505 21.2817 80.7626 20.2676 81.7816 19.2375C82.8166 18.1912 84.0825 17.3219 85.5793 16.6298C87.0761 15.9215 88.8515 15.5674 90.9055 15.5674C93.5806 15.5674 95.9292 16.2757 97.9515 17.6922C99.9737 19.0926 101.431 21.2093 102.322 24.0423C103.214 26.8593 103.31 30.3925 102.609 34.642C101.94 38.7789 100.706 42.2719 98.9069 45.121C97.1235 47.9541 94.9818 50.103 92.4819 51.5678C89.9979 53.0165 87.3627 53.7408 84.5761 53.7408C82.6017 53.7408 80.9775 53.4109 79.7037 52.7509C78.4458 52.0909 77.4665 51.2619 76.7659 50.2639C76.0653 49.2498 75.5637 48.2277 75.2612 47.1975H74.7596L73.8042 53.1372H63.7727ZM76.7898 34.5937C76.4395 36.799 76.4315 38.7226 76.7659 40.3644C77.1162 42.0063 77.785 43.286 78.7722 44.2035C79.7753 45.1049 81.089 45.5556 82.7131 45.5556C84.3851 45.5556 85.8659 45.0969 87.1557 44.1794C88.4614 43.2458 89.5441 41.958 90.404 40.3161C91.2638 38.6582 91.8689 36.7507 92.2192 34.5937C92.5536 32.4529 92.5615 30.5696 92.2431 28.9438C91.9246 27.318 91.2718 26.0464 90.2845 25.1289C89.2973 24.2113 87.9598 23.7526 86.2719 23.7526C84.6319 23.7526 83.159 24.1952 81.8533 25.0806C80.5635 25.9659 79.4808 27.2214 78.605 28.8472C77.7452 30.473 77.1401 32.3885 76.7898 34.5937Z" fill="#31B15C"/>
<path d="M53.1276 37.3106C53.1276 44.1744 47.5634 49.7386 40.6996 49.7386C33.8358 49.7386 28.2716 44.1744 28.2716 37.3106C28.2716 30.4468 33.8358 24.8826 40.6996 24.8826C47.5634 24.8826 53.1276 30.4468 53.1276 37.3106Z" fill="#31B15C"/>
<path fill-rule="evenodd" clip-rule="evenodd" d="M25.7123 6.65911C26.435 5.42083 27.7539 4.65747 29.1826 4.65747H60.4138C67.646 4.65747 73.4968 10.5822 73.4968 17.8759V23.1284C73.4968 28.8934 68.7103 33.4917 62.9973 33.1836C57.1746 32.8696 52.6234 28.0075 52.6234 22.1289V19.2477C52.6234 17.0097 54.42 15.1835 56.6509 15.1835C58.8817 15.1835 60.6783 17.0097 60.6783 19.2477V22.1289C60.6783 23.699 61.892 24.9839 63.4272 25.0667C64.5151 25.1254 65.4419 24.248 65.4419 23.1284V17.8759C65.4419 15.0582 63.1842 12.786 60.4138 12.786H38.3313C37.2826 12.786 36.6166 13.9089 37.1195 14.8291L54.9656 47.4846C56.037 49.4451 55.3362 51.916 53.389 53.0034C51.4378 54.0931 48.9858 53.3745 47.9122 51.4101L25.6559 10.6845C24.9687 9.42693 24.99 7.89664 25.7123 6.65911ZM4.15928 17.633C2.30659 17.633 0.804688 19.2103 0.804688 21.156C0.804688 23.1018 2.30659 24.6791 4.15929 24.6791H23.588C25.4407 24.6791 26.9426 23.1018 26.9426 21.156C26.9426 19.2103 25.4407 17.633 23.588 17.633L4.15928 17.633ZM10.0214 28.1056C8.16866 28.1056 6.66676 29.683 6.66676 31.6287C6.66676 33.5744 8.16866 35.1518 10.0214 35.1518H29.4501C31.3028 35.1518 32.8047 33.5744 32.8047 31.6287C32.8047 29.683 31.3028 28.1056 29.4501 28.1056L10.0214 28.1056ZM12.5288 42.1823C12.5288 40.2365 14.0307 38.6592 15.8834 38.6592H35.3121C37.1648 38.6592 38.6667 40.2365 38.6667 42.1823C38.6667 44.128 37.1648 45.7053 35.3121 45.7053H15.8834C14.0307 45.7053 12.5288 44.128 12.5288 42.1823Z" fill="#102224"/>
</svg>
