<svg width="335" height="54" viewBox="0 0 335 54" fill="none" xmlns="http://www.w3.org/2000/svg">
<path d="M313.596 53.0246C309.838 53.0246 306.725 52.252 304.257 50.7067C301.789 49.1453 300.054 46.9401 299.051 44.0909C298.063 41.2257 297.896 37.8374 298.549 33.9258C299.186 30.1109 300.468 26.7628 302.394 23.8815C304.337 21.0002 306.773 18.7547 309.703 17.145C312.633 15.5353 315.897 14.7305 319.496 14.7305C321.916 14.7305 324.105 15.1248 326.064 15.9136C328.038 16.6862 329.678 17.8613 330.984 19.4388C332.29 21.0001 333.182 22.9559 333.659 25.306C334.153 27.6562 334.145 30.4087 333.635 33.5637L333.182 36.3886L302.227 36.3886L303.206 30.0143L324.607 30.0143C324.846 28.5334 324.75 27.2215 324.32 26.0787C323.89 24.9358 323.174 24.0424 322.171 23.3986C321.168 22.7386 319.934 22.4086 318.469 22.4086C316.972 22.4086 315.571 22.7788 314.265 23.5193C312.959 24.2597 311.861 25.2336 310.969 26.4409C310.093 27.632 309.528 28.9278 309.273 30.3282L308.151 36.6542C307.832 38.6019 307.896 40.2197 308.342 41.5074C308.803 42.7952 309.6 43.761 310.73 44.4048C311.861 45.0326 313.294 45.3465 315.029 45.3465C316.16 45.3465 317.219 45.1855 318.206 44.8636C319.209 44.5416 320.101 44.0668 320.881 43.439C321.661 42.7951 322.298 41.9984 322.792 41.0487L332.083 41.6764C331.223 43.9622 329.917 45.9582 328.166 47.6644C326.414 49.3546 324.304 50.6745 321.836 51.6242C319.384 52.5578 316.638 53.0246 313.596 53.0246Z" fill="white"/>
<path d="M304.445 15.2106L285.504 52.2975H274.04L267.328 15.2106L277.694 15.2106L280.942 41.7461H281.324L293.29 15.2106L304.445 15.2106Z" fill="white"/>
<path d="M242.17 53.0005C239.845 53.0005 237.831 52.59 236.127 51.7691C234.44 50.9321 233.198 49.6926 232.401 48.0507C231.605 46.4089 231.406 44.3726 231.804 41.942C232.155 39.8816 232.815 38.1593 233.787 36.775C234.774 35.3745 235.976 34.2478 237.393 33.3946C238.81 32.5415 240.379 31.8896 242.099 31.4389C243.834 30.9882 245.625 30.6823 247.473 30.5214C249.606 30.296 251.342 30.0787 252.679 29.8695C254.033 29.6602 255.044 29.3624 255.713 28.9761C256.381 28.5737 256.787 27.9781 256.931 27.1893V27.0445C257.17 25.5314 256.891 24.3563 256.095 23.5193C255.315 22.6662 254.065 22.2396 252.345 22.2396C250.53 22.2396 248.985 22.642 247.711 23.4469C246.453 24.2517 245.554 25.2738 245.012 26.5133L235.745 25.7406C236.573 23.4871 237.823 21.5394 239.495 19.8975C241.183 18.2396 243.213 16.9679 245.586 16.0826C247.958 15.1812 250.617 14.7305 253.563 14.7305C255.601 14.7305 257.504 14.9719 259.271 15.4548C261.055 15.9377 262.591 16.6862 263.881 17.7003C265.187 18.7144 266.126 20.0182 266.7 21.6118C267.289 23.1893 267.408 25.0807 267.058 27.2859L262.926 52.3003L253.276 52.3003L254.136 47.1574H253.85C253.069 48.3163 252.114 49.3385 250.984 50.2238C249.853 51.093 248.555 51.7771 247.09 52.2761C245.625 52.759 243.985 53.0005 242.17 53.0005ZM246.254 45.9018C247.735 45.9018 249.097 45.604 250.339 45.0085C251.597 44.3968 252.632 43.5758 253.444 42.5456C254.272 41.5155 254.797 40.3484 255.02 39.0446L255.641 35.1089C255.323 35.3182 254.861 35.5033 254.256 35.6643C253.667 35.8253 253.022 35.9782 252.321 36.123C251.636 36.2518 250.944 36.3725 250.243 36.4852C249.543 36.5818 248.914 36.6784 248.356 36.775C247.13 36.952 246.031 37.2337 245.06 37.62C244.089 38.0064 243.301 38.5295 242.696 39.1895C242.091 39.8333 241.716 40.6382 241.573 41.604C241.35 43.0044 241.677 44.0748 242.552 44.8153C243.444 45.5396 244.678 45.9018 246.254 45.9018Z" fill="white"/>
<path d="M187.215 52.2975L183.345 15.2106L193.64 15.2106L195.216 40.1283H195.55L205.582 15.2106L215.685 15.2106L217.596 39.9835H217.906L227.603 15.2106L237.874 15.2106L221.8 52.2975H211.028L208.544 28.9733H208.09L197.963 52.2975H187.215Z" fill="white"/>
<path d="M161.98 53.0246C158.222 53.0246 155.109 52.252 152.641 50.7067C150.173 49.1453 148.438 46.9401 147.435 44.0909C146.447 41.2257 146.28 37.8374 146.933 33.9258C147.57 30.1109 148.852 26.7628 150.778 23.8815C152.721 21.0002 155.157 18.7547 158.087 17.145C161.017 15.5353 164.281 14.7305 167.88 14.7305C170.3 14.7305 172.489 15.1248 174.448 15.9136C176.422 16.6862 178.063 17.8613 179.368 19.4388C180.674 21.0001 181.566 22.9559 182.043 25.306C182.537 27.6562 182.529 30.4087 182.019 33.5637L181.566 36.3886L150.611 36.3886L151.59 30.0143L172.991 30.0143C173.23 28.5334 173.134 27.2215 172.704 26.0787C172.275 24.9358 171.558 24.0424 170.555 23.3986C169.552 22.7386 168.318 22.4086 166.853 22.4086C165.356 22.4086 163.955 22.7788 162.649 23.5193C161.343 24.2597 160.245 25.2336 159.353 26.4409C158.477 27.632 157.912 28.9278 157.657 30.3282L156.535 36.6542C156.216 38.6019 156.28 40.2197 156.726 41.5074C157.187 42.7952 157.984 43.761 159.114 44.4048C160.245 45.0326 161.678 45.3465 163.413 45.3465C164.544 45.3465 165.603 45.1855 166.59 44.8636C167.593 44.5416 168.485 44.0668 169.265 43.439C170.045 42.7951 170.682 41.9984 171.176 41.0487L180.467 41.6764C179.607 43.9622 178.301 45.9582 176.55 47.6644C174.798 49.3546 172.689 50.6745 170.22 51.6242C167.768 52.5578 165.022 53.0246 161.98 53.0246Z" fill="white"/>
<path d="M124.063 41.6245L126.093 29.2863H127.574L141.69 15.2097L153.369 15.2097L134.548 33.8498H132.112L124.063 41.6245ZM113.1 52.2966L121.221 2.84741L131.396 2.84741L123.275 52.2966H113.1ZM136.029 52.2966L127.909 36.1435L135.862 28.8759L147.948 52.2966H136.029Z" fill="white"/>
<path d="M100.156 52.2982L106.271 15.2113H116.446L110.331 52.2982H100.156ZM112.409 10.3823C110.897 10.3823 109.647 9.87523 108.659 8.86114C107.688 7.83095 107.29 6.60759 107.465 5.19108C107.64 3.74237 108.325 2.51902 109.519 1.52102C110.713 0.506926 112.067 -0.00012207 113.58 -0.00012207C115.092 -0.00012207 116.326 0.506926 117.282 1.52102C118.237 2.51902 118.635 3.74237 118.476 5.19108C118.317 6.60759 117.64 7.83095 116.446 8.86114C115.267 9.87523 113.922 10.3823 112.409 10.3823Z" fill="white"/>
<path d="M62.968 52.2966L71.0888 2.84741L81.2636 2.84741L78.2541 21.4392H78.5407C79.1458 20.4412 79.9579 19.4271 80.977 18.3969C82.012 17.3506 83.2778 16.4814 84.7746 15.7892C86.2714 15.0809 88.0468 14.7268 90.1008 14.7268C92.7759 14.7268 95.1246 15.4351 97.1468 16.8516C99.169 18.252 100.626 20.3687 101.518 23.2018C102.409 26.0187 102.505 29.5519 101.804 33.8015C101.136 37.9383 99.9015 41.4313 98.1022 44.2805C96.3188 47.1135 94.1771 49.2624 91.6772 50.7272C89.1932 52.1759 86.558 52.9003 83.7714 52.9003C81.797 52.9003 80.1728 52.5703 78.899 51.9103C77.6411 51.2503 76.6618 50.4214 75.9612 49.4234C75.2606 48.4093 74.759 47.3871 74.4565 46.3569H73.9549L72.9995 52.2966H62.968ZM75.9851 33.7532C75.6348 35.9584 75.6268 37.882 75.9612 39.5239C76.3115 41.1657 76.9803 42.4454 77.9675 43.3629C78.9707 44.2644 80.2843 44.7151 81.9085 44.7151C83.5804 44.7151 85.0612 44.2563 86.351 43.3388C87.6567 42.4052 88.7394 41.1174 89.5993 39.4756C90.4591 37.8176 91.0642 35.9101 91.4145 33.7532C91.7489 31.6123 91.7568 29.729 91.4384 28.1032C91.1199 26.4774 90.4671 25.2058 89.4798 24.2883C88.4926 23.3708 87.1551 22.912 85.4673 22.912C83.8272 22.912 82.3543 23.3547 81.0486 24.24C79.7588 25.1253 78.6761 26.3809 77.8003 28.0066C76.9405 29.6324 76.3354 31.5479 75.9851 33.7532Z" fill="white"/>
<path fill-rule="evenodd" clip-rule="evenodd" d="M24.9076 5.81841C25.6304 4.58013 26.9492 3.81677 28.3779 3.81677H59.6092C66.8413 3.81677 72.6921 9.74149 72.6921 17.0352V22.2877C72.6921 28.0527 67.9056 32.6511 62.1927 32.3429C56.3699 32.0289 51.8187 27.1668 51.8187 21.2882V18.407C51.8187 16.169 53.6153 14.3428 55.8462 14.3428C58.0771 14.3428 59.8736 16.169 59.8736 18.407V21.2882C59.8736 22.8583 61.0873 24.1432 62.6226 24.226C63.7104 24.2847 64.6373 23.4073 64.6373 22.2877V17.0352C64.6373 14.2175 62.3795 11.9453 59.6092 11.9453H37.5266C36.4779 11.9453 35.8119 13.0682 36.3148 13.9884L54.1609 46.6439C55.2323 48.6044 54.5315 51.0753 52.5844 52.1627C50.6331 53.2524 48.1811 52.5338 47.1076 50.5694L24.8512 9.84376C24.164 8.58623 24.1854 7.05595 24.9076 5.81841ZM3.3546 16.7923C1.5019 16.7923 0 18.3696 0 20.3153C0 22.2611 1.50191 23.8384 3.3546 23.8384L22.7833 23.8384C24.636 23.8384 26.1379 22.2611 26.1379 20.3153C26.1379 18.3696 24.636 16.7923 22.7833 16.7923L3.3546 16.7923ZM9.21667 27.2649C7.36398 27.2649 5.86207 28.8423 5.86207 30.788C5.86207 32.7337 7.36398 34.3111 9.21667 34.3111H28.6454C30.4981 34.3111 32 32.7337 32 30.788C32 28.8423 30.4981 27.2649 28.6454 27.2649L9.21667 27.2649ZM11.7241 41.3416C11.7241 39.3958 13.226 37.8185 15.0787 37.8185L34.5075 37.8185C36.3601 37.8185 37.8621 39.3958 37.8621 41.3416C37.8621 43.2873 36.3601 44.8646 34.5075 44.8646H15.0787C13.226 44.8646 11.7241 43.2873 11.7241 41.3416Z" fill="url(#paint0_linear_521_520)"/>
<defs>
<linearGradient id="paint0_linear_521_520" x1="-8.48991" y1="39.2712" x2="68.7898" y2="41.6395" gradientUnits="userSpaceOnUse">
<stop stop-color="#56A353"/>
<stop offset="1" stop-color="#D4E971"/>
</linearGradient>
</defs>
</svg>
