<svg width="80" height="80" viewBox="0 0 80 80" fill="none" xmlns="http://www.w3.org/2000/svg">
<path fill-rule="evenodd" clip-rule="evenodd" d="M28.3538 16.1178C29.1185 14.8076 30.5138 14 32.0254 14H65.0686C72.7203 14 78.9106 20.2685 78.9106 27.9854V33.5426C78.9106 39.6421 73.8464 44.5073 67.802 44.1813C61.6414 43.849 56.8262 38.7049 56.8262 32.4852V29.4368C56.8262 27.069 58.727 25.1367 61.0873 25.1367C63.4476 25.1367 65.3484 27.069 65.3484 29.4368V32.4852C65.3484 34.1464 66.6325 35.5058 68.2568 35.5934C69.4078 35.6555 70.3884 34.7272 70.3884 33.5426V27.9854C70.3884 25.0042 67.9997 22.6001 65.0686 22.6001H40.0845C39.7048 22.6001 39.4637 23.0067 39.6458 23.3399L59.3043 59.312C60.4378 61.3862 59.6964 64.0005 57.6362 65.151C55.5718 66.3039 52.9775 65.5437 51.8417 63.4652L28.2941 20.3767C27.567 19.0462 27.5896 17.4271 28.3538 16.1178ZM5.54922 27.7288C3.58904 27.7288 2 29.3976 2 31.4562C2 33.5149 3.58904 35.1837 5.54922 35.1837L26.1051 35.1837C28.0653 35.1837 29.6543 33.5149 29.6543 31.4562C29.6543 29.3976 28.0653 27.7288 26.1051 27.7288L5.54922 27.7288ZM11.7502 38.8094C9.79005 38.8094 8.20101 40.4782 8.20101 42.5369C8.20101 44.5955 9.79005 46.2643 11.7502 46.2643H32.3061C34.2663 46.2643 35.8553 44.5955 35.8553 42.5369C35.8553 40.4782 34.2663 38.8094 32.3061 38.8094L11.7502 38.8094ZM14.4041 53.7024C14.4041 51.6437 15.9931 49.9749 17.9533 49.9749L38.5092 49.9749C40.4693 49.9749 42.0584 51.6437 42.0584 53.7024C42.0584 55.761 40.4693 57.4298 38.5092 57.4298H17.9533C15.9931 57.4298 14.4041 55.761 14.4041 53.7024Z" fill="white"/>
</svg>
