<svg width="27" height="19" viewBox="0 0 27 19" fill="none" xmlns="http://www.w3.org/2000/svg">
<path fill-rule="evenodd" clip-rule="evenodd" d="M9.01865 1.1066C9.28034 0.658236 9.75787 0.381836 10.2752 0.381836H21.5835C24.2021 0.381836 26.3206 2.52709 26.3206 5.16804V7.06988C26.3206 9.15732 24.5875 10.8223 22.5189 10.7107C20.4106 10.597 18.7627 8.83655 18.7627 6.70799V5.66476C18.7627 4.85441 19.4132 4.19315 20.221 4.19315C21.0288 4.19315 21.6793 4.85441 21.6793 5.66476V6.70799C21.6793 7.27651 22.1187 7.74173 22.6746 7.77171C23.0685 7.79296 23.4041 7.47529 23.4041 7.06988V5.16804C23.4041 4.14779 22.5866 3.32505 21.5835 3.32505H13.5878C13.2081 3.32505 12.9669 3.73163 13.149 4.06483L19.6108 15.8889C19.9987 16.5988 19.745 17.4934 19.0399 17.8872C18.3334 18.2817 17.4456 18.0216 17.0569 17.3103L8.99822 2.56412C8.74938 2.10879 8.75713 1.55469 9.01865 1.1066ZM1.21464 5.0802C0.543815 5.0802 -6.09289e-08 5.65133 0 6.35585C6.09289e-08 7.06037 0.543815 7.63149 1.21464 7.63149L8.24946 7.63149C8.92029 7.63149 9.4641 7.06037 9.4641 6.35585C9.4641 5.65132 8.92029 5.0802 8.24946 5.0802L1.21464 5.0802ZM3.33714 8.87231C2.66631 8.87231 2.1225 9.44343 2.1225 10.148C2.1225 10.8525 2.66631 11.4236 3.33714 11.4236L10.372 11.4236C11.0428 11.4236 11.5866 10.8525 11.5866 10.148C11.5866 9.44343 11.0428 8.87231 10.372 8.87231L3.33714 8.87231ZM4.24512 13.9691C4.24512 13.2646 4.78893 12.6935 5.45976 12.6935L12.4946 12.6935C13.1654 12.6935 13.7092 13.2646 13.7092 13.9691C13.7092 14.6736 13.1654 15.2448 12.4946 15.2448L5.45976 15.2448C4.78893 15.2448 4.24512 14.6736 4.24512 13.9691Z" fill="#102224"/>
</svg>
