<svg width="353" height="318" viewBox="0 0 353 318" fill="none" xmlns="http://www.w3.org/2000/svg">
<g clip-path="url(#clip0_486_375)">
<path d="M155.075 296.577C155.932 297.864 157.059 299.008 158.448 299.873L158.565 299.945C168.042 291.255 178.267 278.872 183.425 269.534C182.442 268.553 181.252 267.715 179.908 266.995C175.418 264.527 169.331 263.618 164.561 264.473C161.496 267.112 160.017 270.993 157.42 275.973C156.383 280.196 154.985 283.204 153.795 286.968C152.758 290.219 153.263 293.776 155.075 296.577Z" fill="#74686E"/>
<path d="M155.075 296.577C155.932 297.864 157.059 299.008 158.448 299.873L158.565 299.945C168.042 291.255 178.267 278.872 183.425 269.534C182.442 268.553 181.252 267.715 179.908 266.995C172.343 277.414 164.038 287.31 155.075 296.577Z" fill="#B7A6B3"/>
<path d="M178.962 214.972C176.509 232.64 174.931 250.434 174.255 268.282C170.215 269.57 166.175 270.858 160.107 270.804C159.151 245.337 156.076 219.952 150.909 195.043C148.628 184.831 146.987 174.538 145.905 164.21C144.733 153.061 144.21 141.868 144.246 130.674C154.264 119.967 165.229 109.746 176.184 99.5253C179.268 107.558 178.944 118.085 176.852 127.297C176.32 137.59 175.788 147.883 175.256 158.275C174.751 168.064 174.237 177.933 173.723 187.992C175.057 192.738 176.383 197.484 177.898 202.355C179.169 206.435 179.548 210.748 178.962 214.972Z" fill="#FBB097"/>
<path d="M176.852 127.297C176.32 137.59 175.788 147.883 175.256 158.275C165.743 161.373 155.869 163.363 145.905 164.21C144.733 153.061 144.21 141.868 144.246 130.674C154.264 119.967 165.229 109.746 176.184 99.5253C179.268 107.558 178.944 118.085 176.852 127.297Z" fill="#524A57"/>
<path d="M177.456 288.274L253.334 282.168" stroke="#B8C7CF" stroke-miterlimit="10"/>
<path d="M173.84 249.02L254.263 247.805" stroke="#B8C7CF" stroke-miterlimit="10"/>
<path d="M194.291 258.62C188.844 248.858 176.482 245.337 166.699 250.794C156.906 256.242 153.407 268.589 158.863 278.35C164.318 288.13 176.671 291.633 186.455 286.176C196.238 280.719 199.746 268.39 194.291 258.62ZM163.29 275.883C159.196 268.553 161.829 259.295 169.169 255.216C176.509 251.128 185.779 253.757 189.863 261.087C193.957 268.417 191.324 277.675 183.984 281.754C176.644 285.843 167.375 283.213 163.29 275.883Z" fill="#47535E"/>
<path d="M176.572 273.226C179.197 273.226 181.324 271.101 181.324 268.48C181.324 265.859 179.197 263.735 176.572 263.735C173.948 263.735 171.82 265.859 171.82 268.48C171.82 271.101 173.948 273.226 176.572 273.226Z" fill="#47535E"/>
<path d="M188.836 259.076L173.29 267.733L175.498 271.689L191.045 263.033L188.836 259.076Z" fill="#47535E"/>
<path d="M162.006 260.209L160.374 264.436L176.981 270.832L178.613 266.606L162.006 260.209Z" fill="#47535E"/>
<path d="M179.048 270.03L174.514 270.15L174.986 287.92L179.52 287.8L179.048 270.03Z" fill="#47535E"/>
<path d="M253.388 257.99L242.983 269.03C241.639 270.453 241.612 272.677 242.92 274.136L250.007 282.042C251.188 283.357 253.253 283.348 254.416 282.024C255.408 280.89 255.39 279.197 254.371 278.089L251.125 274.559C249.782 273.1 249.8 270.849 251.161 269.408L256.851 263.411" fill="#47535E"/>
<path d="M254.263 245.202C247.78 245.202 242.514 250.452 242.514 256.936C242.514 263.42 247.78 268.67 254.263 268.67C260.746 268.67 266.012 263.411 266.012 256.936C266.012 250.461 260.755 245.202 254.263 245.202ZM254.263 265.041C249.782 265.041 246.148 261.411 246.148 256.936C246.148 252.46 249.782 248.831 254.263 248.831C258.745 248.831 262.379 252.46 262.379 256.936C262.379 261.411 258.745 265.041 254.263 265.041Z" fill="#B8C7CF"/>
<path d="M253.975 266.148C259.049 266.148 263.163 262.04 263.163 256.972C263.163 251.904 259.049 247.796 253.975 247.796C248.9 247.796 244.786 251.904 244.786 256.972C244.786 262.04 248.9 266.148 253.975 266.148Z" fill="#3A4352"/>
<path d="M256.166 195.98C223.542 195.98 197.104 222.392 197.104 254.964C197.104 287.536 223.542 313.948 256.166 313.948C288.79 313.948 315.228 287.545 315.228 254.964C315.228 222.383 288.78 195.98 256.166 195.98ZM256.166 304.042C229.024 304.042 207.023 282.069 207.023 254.964C207.023 227.858 229.024 205.886 256.166 205.886C283.307 205.886 305.309 227.858 305.309 254.964C305.309 282.069 283.307 304.042 256.166 304.042Z" fill="#A88F6C"/>
<path d="M256.166 199.582C225.535 199.582 200.711 224.382 200.711 254.964C200.711 285.545 225.535 310.346 256.166 310.346C286.797 310.346 311.621 285.554 311.621 254.964C311.621 224.373 286.797 199.582 256.166 199.582ZM256.166 304.042C229.025 304.042 207.023 282.069 207.023 254.964C207.023 227.858 229.025 205.886 256.166 205.886C283.307 205.886 305.309 227.858 305.309 254.964C305.309 282.069 283.307 304.042 256.166 304.042Z" fill="#3A4352"/>
<path d="M59.0618 195.98C26.438 195.98 0 222.392 0 254.964C0 287.536 26.438 313.948 59.0618 313.948C91.6855 313.948 118.124 287.545 118.124 254.964C118.124 222.383 91.6765 195.98 59.0618 195.98ZM59.0618 304.042C31.9204 304.042 9.91877 282.069 9.91877 254.964C9.91877 227.858 31.9204 205.886 59.0618 205.886C86.2031 205.886 108.205 227.858 108.205 254.964C108.205 282.069 86.2031 304.042 59.0618 304.042Z" fill="#A88F6C"/>
<path d="M59.0619 199.582C28.4309 199.582 3.60693 224.382 3.60693 254.964C3.60693 285.545 28.4309 310.346 59.0619 310.346C89.6928 310.346 114.517 285.554 114.517 254.964C114.517 224.373 89.6928 199.582 59.0619 199.582ZM59.0619 304.042C31.9205 304.042 9.91888 282.069 9.91888 254.964C9.91888 227.858 31.9205 205.886 59.0619 205.886C86.2032 205.886 108.205 227.858 108.205 254.964C108.205 282.069 86.2032 304.042 59.0619 304.042Z" fill="#3A4352"/>
<path d="M193.723 177.033L86.4195 167.785L85.1121 171.711L192.893 181.662L193.723 177.033Z" fill="#39314A"/>
<path d="M81.884 180.158L175.139 273.163L177.456 260.475L86.3114 170.927L81.884 180.158Z" fill="white"/>
<path d="M77.6008 164.354C78.773 157.528 79.5215 152.791 80.4142 145.488C84.3095 145.371 88.1328 145.866 91.8839 146.685C90.7116 153.493 90.1345 158.221 88.8812 165.497C85.7523 164.867 80.6396 165.335 77.6008 164.354Z" fill="#39314A"/>
<path d="M82.6955 146.613C73.9309 145.542 65.1573 144.47 56.1492 143.552C52.1186 143.137 48.2142 145.227 46.4018 148.847C46.1854 149.27 45.978 149.711 45.7796 150.143C43.9942 154.07 44.9861 158.662 48.1871 161.562C51.3972 164.462 55.0672 166.92 59.1609 168.82C61.1176 169.73 63.444 168.946 64.4269 167.028C64.481 166.92 64.5351 166.821 64.5892 166.713C65.5811 164.768 64.8146 162.408 62.894 161.355C59.4314 159.464 56.555 157.221 53.4621 154.439C53.0744 154.088 52.9572 153.511 53.1736 153.034C53.1736 153.025 53.1826 153.016 53.1826 153.016C53.399 152.548 53.8859 152.269 54.3909 152.314C63.5342 153.124 72.2357 154.745 81.2978 156.357C81.5503 154.106 82.2536 149.612 82.6955 146.613Z" fill="#39314A"/>
<path d="M212.992 127.333L201.189 139.049C200.016 140.22 199.205 141.706 198.871 143.335L197.681 149.153L173.894 270.921C173.858 271.11 173.831 271.299 173.84 271.488C173.876 272.542 174.633 273.478 175.715 273.703C176.987 273.965 178.24 273.145 178.502 271.875L203.722 145.182C204.047 143.534 204.859 142.03 206.049 140.85L216.824 130.161C215.544 129.215 214.263 128.27 212.992 127.333Z" fill="#39314A"/>
<path d="M59.6118 269.921C66.1007 269.921 71.361 264.668 71.361 258.188C71.361 251.707 66.1007 246.454 59.6118 246.454C53.1229 246.454 47.8625 251.707 47.8625 258.188C47.8625 264.668 53.1229 269.921 59.6118 269.921Z" fill="#B8C7CF"/>
<path d="M53.6875 255.783L77.8712 161.598L89.2147 164.21L64.9588 258.656C64.2014 261.619 61.1355 263.411 58.0517 262.699C54.8687 261.97 52.903 258.845 53.6875 255.783Z" fill="white"/>
<path d="M190.648 119.958C208.357 119.958 219.98 119.913 235.345 122.038C237.257 122.299 238.303 124.353 237.131 125.883C235.931 127.45 234.579 128.927 233.073 130.269C228.592 134.267 222.289 135.537 216.527 133.817C210.657 132.061 204.922 129.981 199.421 127.558C196.319 126.199 192.893 125.775 189.575 126.433C189.34 126.478 189.097 126.523 188.862 126.577C185.553 127.234 183.714 122.831 186.545 121.003C186.59 120.976 186.626 120.949 186.671 120.922C187.843 120.192 189.25 119.958 190.648 119.958Z" fill="#564C39"/>
<path d="M193.542 185.489L259.565 256.981C260.521 258.017 260.548 259.61 259.619 260.673C258.537 261.916 256.616 261.943 255.498 260.736L191.648 191.846L193.542 185.489Z" fill="#39314A"/>
<path d="M176.572 273.064L258.212 261.538L252.703 252.802L179.43 263.825L176.572 273.064Z" fill="#39314A"/>
<path d="M169.485 122.011C161.072 130.548 151.947 138.527 142.596 146.388C141.983 146.911 141.37 147.433 140.747 147.946L136.365 151.593C133.425 154.043 130.468 156.492 127.51 158.941C119.954 165.218 108.917 165.263 101.46 158.878C101.361 158.797 101.271 158.707 101.171 158.626C96.3834 154.475 95.6079 147.343 99.1877 142.12C102.127 137.815 105.283 133.754 108.583 129.9C109.693 128.603 110.811 127.333 111.947 126.082C112.84 125.1 113.741 124.127 114.661 123.164C119.341 118.211 124.21 113.573 129.07 109.179C130.125 105.19 129.981 100.363 130.747 96.2834C139.061 88.629 154.174 81.1547 168.439 76.6971C170.576 79.0655 172.424 81.5149 173.975 84.0184C181.486 96.1664 179.521 111.835 169.485 122.011Z" fill="#443B4A"/>
<path d="M140.747 147.946L136.365 151.593C133.425 154.043 130.468 156.492 127.51 158.941C119.954 165.218 108.917 165.263 101.46 158.878C101.361 158.797 101.271 158.707 101.171 158.626C96.3834 154.475 95.6079 147.343 99.1877 142.12C102.127 137.815 105.283 133.754 108.583 129.9C109.693 128.603 110.811 127.333 111.947 126.082C123.949 129.071 134.607 137.212 140.747 147.946Z" fill="#FFBA98"/>
<path d="M131.108 108.945C137.204 105.064 144.985 103.929 151.929 105.919" stroke="#2B2633" stroke-linecap="round" stroke-linejoin="round"/>
<path d="M136.825 103.398C141.505 101.227 146.464 99.6874 151.55 98.8229" stroke="#2B2633" stroke-linecap="round" stroke-linejoin="round"/>
<path d="M81.2439 69.2588C75.7074 65.2515 68.8815 63.0362 62.0466 63.0182C57.5561 65.4766 52.9394 67.899 48.1152 69.682C46.3118 70.3484 44.2649 69.8171 43.0386 68.3493C40.3155 65.0894 38.2055 61.6314 36.5103 57.9843C34.4904 57.8222 32.8223 57.5341 31.1631 57.2549C31.4787 55.5709 31.7943 53.7879 32.0017 51.9688C32.2722 49.6365 31.7583 47.2681 30.5139 45.278C28.9449 42.7565 27.7998 40.019 27.1686 37.1553C25.4644 29.4829 28.999 21.6394 35.6987 17.506C37.935 16.1282 40.3155 14.9395 42.8222 13.958C51.2712 10.6621 61.0277 13.7238 65.7977 21.4323C65.8608 21.5403 65.9239 21.6394 65.987 21.7475C67.4298 24.1338 68.097 26.8714 68.2684 29.645C68.5028 33.4362 70.712 36.4529 72.9121 39.9199C76.9698 41.6039 80.8742 42.3333 85.8516 43.1708C84.2827 51.6447 81.83 61.9106 81.2439 69.2588Z" fill="#FFBA98"/>
<path d="M39.8916 34.742C46.7356 41.4509 56.474 45.08 65.7976 44.4766C67.3125 44.3776 68.7913 43.9183 70.0807 43.1168C71.4513 42.2614 72.8309 41.1807 74.2286 40.0101C72.9752 34.9491 68.6651 30.7167 66.537 27.4118C56.4289 26.4392 48.0791 27.664 39.8916 34.742Z" fill="#3F2136"/>
<path d="M42.759 34.9131C46.4019 41.2888 51.6859 46.7099 57.9707 50.5281C61.9653 43.9273 65.2295 35.4804 67.8084 28.0962C68.8814 29.4019 70.3061 31.5812 71.1357 33.4723C68.4396 41.5769 63.6425 49.8527 58.4757 57.1829C49.9365 52.8244 42.6778 45.9895 37.8086 37.7317C39.2603 36.8312 40.7211 35.9307 42.759 34.9131Z" fill="#6C6175"/>
<path d="M71.821 23.8007C70.7209 26.4392 69.1069 28.8616 67.3035 30.8067C61.9924 31.4461 56.5822 31.302 51.3162 30.3565C49.4497 31.9144 47.7364 33.2832 46.0412 34.5079C43.796 36.1288 41.2892 37.3445 38.6202 38.1009C33.255 39.6138 27.8538 40.3072 22.678 39.902C22.3805 37.6687 22.2993 35.3093 22.4436 32.932C23.0116 23.6296 28.6383 15.3718 36.916 11.0674C40.3334 9.29335 43.9583 7.88854 47.7725 6.86195C49.5218 6.39368 51.3162 6.15955 53.1016 6.15955C56.2215 6.16855 59.3143 6.91598 62.0826 8.45587C62.2719 8.56393 62.4613 8.67199 62.6416 8.78005C65.6894 10.5631 68.0429 13.3007 69.4405 16.5425C69.4856 16.6416 69.5217 16.7316 69.5577 16.8307C70.5135 19.1 71.28 21.4413 71.821 23.8007Z" fill="#52485C"/>
<path d="M69.5577 16.8307C68.6289 19.3521 67.61 21.8646 66.3386 24.2239C61.0997 24.0889 55.9239 23.1433 50.9014 21.6665C51.0276 16.6686 51.785 11.3645 53.1015 6.15955C56.2214 6.16855 59.3143 6.91598 62.0825 8.45587C62.2719 8.56393 62.4612 8.67199 62.6416 8.78005C65.6894 10.5631 68.0428 13.3007 69.4405 16.5425C69.4855 16.6416 69.5216 16.7316 69.5577 16.8307Z" fill="#6C6175"/>
<path d="M33.1199 29.537C34.9413 26.3041 36.9521 23.1793 38.9359 20.3967C41.7853 18.0914 44.6437 15.7771 47.8628 13.1385C47.0963 15.8941 46.0954 18.5777 45.1486 20.928C41.3434 23.9988 37.3399 26.8354 33.1199 29.537Z" fill="#39314A"/>
<path d="M24.3281 33.3912C25.8159 32.6258 27.3038 31.8694 28.5391 31.0949C30.1261 27.2857 31.7131 23.4675 33.3001 19.6583C29.5851 23.5756 26.5553 28.1322 24.3281 33.3912Z" fill="#39314A"/>
<path d="M27.2678 37.7317C28.5392 36.9842 29.6844 36.0117 30.8296 34.7419C32.5158 35.3633 34.3192 35.6515 36.1226 35.5974C33.6609 37.4525 30.4418 38.254 27.2678 37.7317Z" fill="#39314A"/>
<path d="M57.4839 11.6437C57.1683 13.7779 56.8617 15.9121 56.5461 18.0554C58.2233 18.8478 59.8915 19.6403 61.4965 20.6489C62.1007 18.6677 62.7048 16.6866 63.3089 14.7054C61.3342 13.913 59.3595 13.1205 57.4839 11.6437Z" fill="#39314A"/>
<path d="M59.0078 45.2961C59.8374 43.4501 60.3423 41.4059 60.1259 39.3887C59.9095 37.3716 58.8906 35.3904 57.1864 34.2918C55.4821 33.1932 53.0656 33.1481 51.4876 34.4179C50.4146 35.2824 49.8194 36.6331 49.6752 38.0019C49.5309 39.3707 49.7834 40.7485 50.1981 42.0543" fill="#FFBA98"/>
<path d="M55.9419 66.7194C56.2484 60.2537 56.528 54.9496 55.6443 48.6009C57.0419 48.1327 58.4396 47.6734 59.9815 47.6194C61.0726 53.1666 61.4693 57.7412 61.3611 63.3875C59.7741 64.5942 57.7813 65.6117 55.9419 66.7194Z" fill="#7D7285"/>
<path d="M171.406 79.6328C154.3 85.7923 139.963 96.0492 129.07 109.179C127.835 106.369 126.699 102.569 125.743 100.093C121.749 99.0389 117.141 97.0038 112.362 94.2752C107.574 91.5556 102.623 88.1427 97.9345 84.3335C96.5189 83.1898 95.1302 82.0192 93.7777 80.8035H93.7687C87.7994 75.4634 82.5424 69.61 79.0348 63.9367C78.2593 62.685 77.574 61.4513 76.9789 60.2266C75.2747 56.6966 74.1926 53.878 75.473 50.8162V50.7982C75.6985 50.2399 76.005 49.6635 76.4108 49.0872C76.4379 49.0422 76.4649 49.0062 76.492 48.9701C77.3486 47.7454 78.2593 46.5567 79.2151 45.4041C79.5217 45.0259 79.8463 44.6657 80.189 44.3145C85.3197 38.9023 93.0202 36.6781 100.306 38.6502C103.561 39.5327 106.843 40.4692 110.153 41.4418C114.607 42.7476 119.116 44.1163 123.687 45.4761C124.327 45.6742 124.959 45.8633 125.599 46.0525C131.162 47.7004 136.464 50.0868 141.37 53.1485C144.264 54.9496 147.014 56.9938 149.584 59.2541C149.963 59.5872 150.342 59.9204 150.72 60.2626C157.727 66.4492 164.679 72.9149 171.388 79.6328H171.406Z" fill="#31B15C"/>
<path d="M134.607 67.0525C133.804 76.1297 131.316 85.0629 127.312 93.2576" stroke="#31B15C" stroke-linecap="round" stroke-linejoin="round"/>
<path d="M129.386 95.59C135.959 91.9699 141.757 86.9541 146.275 80.9746" stroke="#31B15C" stroke-linecap="round" stroke-linejoin="round"/>
<path d="M164.39 242.077C165.698 243.41 167.294 244.491 169.151 245.148L169.305 245.202C178.908 231.784 188.646 213.621 192.893 200.653C191.496 199.735 189.882 199.042 188.123 198.555C182.181 196.826 174.652 197.457 169.079 199.897C165.932 204.03 166.194 204.76 164.111 211.622C163.75 217.106 161.478 225.67 160.829 230.641C160.261 234.927 161.613 239.16 164.39 242.077Z" fill="#443B4A"/>
<path d="M164.39 242.077C165.698 243.41 167.294 244.491 169.151 245.148L169.305 245.202C178.908 231.784 188.646 213.621 192.893 200.654C191.496 199.735 189.882 199.042 188.123 198.555C181.189 213.54 173.254 228.101 164.39 242.077Z" fill="#9E8FA6"/>
<path d="M174.381 199.231C172.776 204.337 169.611 212.504 165.418 215.251C158.259 208.101 150.892 201.203 143.48 194.557C128.98 181.526 114.3 169.433 100.622 158.113C102.425 153.016 103.687 148.315 104.851 143.471C114.427 145.722 125.166 148.874 135.932 151.971C143.822 154.241 147.736 161.418 151.622 168.64C153.254 171.684 154.949 174.592 156.744 177.393C161.694 185.201 167.366 192.225 174.381 199.231Z" fill="#FFBA98"/>
<path d="M174.381 199.231C172.776 204.337 169.611 212.504 165.418 215.251C158.259 208.101 150.892 201.203 143.48 194.557C147.952 188.983 152.416 183.345 156.744 177.393C161.694 185.201 167.366 192.225 174.381 199.231Z" fill="white"/>
<path d="M83.3177 78.9304C84.6974 82.2984 86.077 85.6753 87.4385 89.0883C88.2501 91.1144 89.0616 93.1676 89.8641 95.2298C92.2446 93.6269 95.1752 92.9335 98.25 92.9875C101.307 92.2041 104.625 92.177 107.943 92.9245C109.693 93.3207 111.289 94.1672 112.659 95.3108C112.56 94.9686 112.461 94.6174 112.371 94.2752C111.271 90.385 110.216 86.5398 109.179 82.7306C109.052 82.2623 108.926 81.7851 108.8 81.3168C107.348 75.9587 105.942 70.6637 104.544 65.3776C104.391 64.7743 104.228 64.1889 104.075 63.5946C103.976 63.5045 103.868 63.4145 103.768 63.3334C99.4944 59.6683 95.2022 56.7867 90.7027 54.2832C87.3935 52.3111 83.8407 50.483 80.1978 48.4028C79.5937 48.0607 78.9805 47.7095 78.3764 47.3492C77.6821 48.0516 77.0148 48.7901 76.4107 49.5735C76.0861 49.9788 75.7795 50.384 75.5 50.7982C75.4909 50.7982 75.4909 50.8072 75.4909 50.8162C74.4991 52.2391 73.6605 53.806 73.0203 55.544C73.5883 62.2798 76.3476 68.8176 80.6938 74.4188C81.7578 75.7966 82.6595 77.3095 83.3268 78.9304H83.3177Z" fill="#31B15C"/>
<path d="M91.0724 87.0351C89.828 87.6655 88.6198 88.3499 87.4385 89.0883C89.3682 93.8971 91.2798 98.7779 93.1283 103.794C86.4466 114.339 76.3565 124.488 66.3206 131.908C68.2502 136.582 69.4675 140.139 72.4071 143.471C85.9868 134.673 101.704 123.227 112.921 111.574C115.022 109.386 115.797 106.234 114.95 103.325C114.057 100.273 113.2 97.265 112.362 94.2753C111.262 90.3851 110.207 86.5398 109.17 82.7306C105.319 82.7126 101.55 83.271 97.9344 84.3336C97.2581 84.5317 96.5818 84.7478 95.9146 84.9909" fill="#FFBA98"/>
<path d="M95.9145 84.991C94.2554 85.5673 92.6413 86.2517 91.0724 87.0352C89.2329 82.5506 87.2762 77.9309 85.581 73.3833C82.8127 70.6998 80.5945 67.4579 79.0346 63.9369C77.0418 59.4433 76.095 54.4814 76.3926 49.5826C76.4016 49.4115 76.4106 49.2494 76.4196 49.0873V49.0693L76.5188 48.9432L80.1978 44.3146C80.0715 45.6654 80.0625 47.0341 80.1797 48.3939C80.3691 51.2306 80.9913 54.0222 81.9291 56.6967C83.8046 62.0368 86.8253 66.8906 90.0083 71.5643C91.1445 74.7521 92.3708 77.8319 93.7685 80.7946H93.7775C94.4447 82.2264 95.1481 83.6222 95.9145 84.991Z" fill="white"/>
<path d="M123.696 45.4762C120.594 46.2056 117.664 47.6285 115.202 49.6366C112.416 47.9887 109.449 46.3497 106.482 44.7108C107.519 43.351 108.773 42.2704 110.161 41.4419C114.616 42.7476 119.124 44.1164 123.696 45.4762Z" fill="white"/>
<path d="M150.738 60.2628C149.178 62.2799 147.618 64.3061 146.049 66.3233C143.471 63.6487 140.612 61.2533 137.537 59.1912C138.818 57.174 140.098 55.1658 141.388 53.1487C144.282 54.9497 147.032 56.9939 149.602 59.2542C149.981 59.5874 150.36 59.9206 150.738 60.2628Z" fill="white"/>
<path d="M45.978 160.896C46.0051 161.013 46.0411 161.13 46.0682 161.247C46.3387 162.237 48.4938 163.156 49.4766 163.156C52.3892 163.156 52.4433 157.789 55.5451 154.214C63.1375 153.331 70.2069 148.685 74.0121 142.057C72.1365 137.68 70.3782 134.015 68.3944 130.467C60.6849 132.691 53.1286 135.024 45.7977 137.284C45.0312 137.518 44.3099 137.878 43.6516 138.338C41.19 140.067 38.7103 141.796 36.0502 143.543C34.0214 144.875 32.9303 147.253 33.273 149.648C33.5525 151.539 33.8501 153.484 34.2198 155.556C34.5264 157.249 35.9781 158.5 37.7094 158.563C38.2414 158.581 38.8275 158.599 39.4948 158.626C39.5669 158.969 39.639 159.311 39.7292 159.689C39.9546 160.653 40.7662 161.391 41.758 161.445C43.1467 161.508 44.5533 161.337 45.978 160.896Z" fill="#FFBA98"/>
<path d="M46.1404 160.274C45.9781 159.509 45.8609 158.734 45.7887 157.942C45.4551 154.214 47.1774 150.522 50.3784 148.586C50.3964 148.577 50.4145 148.559 50.4325 148.55" stroke="#CB5144" stroke-linecap="round" stroke-linejoin="round"/>
<path d="M39.6119 157.492C39.5668 156.483 39.5217 155.466 39.4676 154.403C39.3233 151.413 40.2972 148.442 42.308 146.217C42.7498 145.731 43.2097 145.272 43.6966 144.839" stroke="#CB5144" stroke-linecap="round" stroke-linejoin="round"/>
<path d="M102.407 60.0646C105.436 67.0526 107.619 74.4008 108.89 81.9111" stroke="#31B15C" stroke-linecap="round" stroke-linejoin="round"/>
<path d="M110.757 68.0072C110.639 71.8704 109.837 75.7156 108.403 79.2997" stroke="#31B15C" stroke-linecap="round" stroke-linejoin="round"/>
<path d="M174.85 242.636C172.496 241.276 171.694 238.268 173.064 235.918L185.282 214.873C186.644 212.522 189.656 211.721 192.009 213.09C194.363 214.449 195.165 217.457 193.795 219.807L181.576 240.853C180.206 243.203 177.194 243.995 174.85 242.636Z" fill="#2C3440"/>
<path d="M174.372 267.76L181.234 227.471C181.531 225.733 183.182 224.562 184.922 224.859C186.662 225.157 187.834 226.804 187.537 228.542L180.675 268.832C180.377 270.57 178.727 271.74 176.987 271.443C175.246 271.155 174.074 269.507 174.372 267.76Z" fill="#B8C7CF"/>
<path d="M75.2744 16.2094C83.8046 16.0022 92.3347 15.9212 100.865 15.7681L126.455 15.516C143.516 15.3719 160.567 15.3809 177.627 15.3088C194.687 15.3809 211.739 15.3719 228.799 15.516L254.389 15.7681C262.919 15.9212 271.45 16.0022 279.98 16.2094C271.45 16.4165 262.919 16.4975 254.389 16.6506L228.799 16.9028C211.739 17.0468 194.687 17.0378 177.627 17.1099C160.567 17.0378 143.516 17.0468 126.455 16.9028L100.865 16.6506C92.3257 16.4975 83.8046 16.4165 75.2744 16.2094Z" fill="white"/>
<path d="M169.052 28.3663C179.349 28.0151 189.638 27.781 199.935 27.6639C210.233 27.5199 220.521 27.4838 230.819 27.4658C241.116 27.4838 251.405 27.5199 261.702 27.6639C272 27.781 282.288 28.0151 292.586 28.3663C282.288 28.7175 272 28.9517 261.702 29.0687C251.405 29.2128 241.116 29.2488 230.819 29.2669C220.521 29.2488 210.233 29.2128 199.935 29.0687C189.638 28.9517 179.34 28.7175 169.052 28.3663Z" fill="white"/>
<path d="M80.1978 0.900518C90.4952 0.549316 100.784 0.315181 111.081 0.198114C121.379 0.0540311 131.667 0.0180104 141.965 0C152.262 0.0180104 162.551 0.0540311 172.848 0.198114C183.146 0.315181 193.434 0.549316 203.732 0.900518C193.434 1.25172 183.146 1.48586 172.848 1.60292C162.551 1.74701 152.262 1.78303 141.965 1.80104C131.667 1.78303 121.379 1.74701 111.081 1.60292C100.784 1.48586 90.4862 1.25172 80.1978 0.900518Z" fill="white"/>
<path d="M169.052 61.6856C176.716 61.4784 184.381 61.3974 192.045 61.2443L215.039 60.9922C230.368 60.8481 245.697 60.8571 261.026 60.785C276.355 60.8571 291.684 60.8481 307.013 60.9922L330.006 61.2443C337.671 61.3974 345.335 61.4784 353 61.6856C345.335 61.8927 337.671 61.9737 330.006 62.1268L307.013 62.3789C291.684 62.523 276.355 62.514 261.026 62.5861C245.697 62.514 230.368 62.523 215.039 62.3789L192.045 62.1268C184.381 61.9737 176.716 61.8927 169.052 61.6856Z" fill="white"/>
<path d="M194.3 70.6907C200.197 70.4836 206.094 70.4025 211.991 70.2494L229.683 69.9973C241.477 69.8532 253.28 69.8622 265.074 69.7902C276.869 69.8622 288.672 69.8532 300.466 69.9973L318.158 70.2494C324.055 70.4025 329.952 70.4836 335.849 70.6907C329.952 70.8978 324.055 70.9788 318.158 71.1319L300.466 71.3841C288.672 71.5282 276.869 71.5192 265.074 71.5912C253.28 71.5192 241.477 71.5282 229.683 71.3841L211.991 71.1319C206.094 70.9788 200.197 70.8978 194.3 70.6907Z" fill="white"/>
<path d="M185.282 98.7148C195.58 98.3636 205.868 98.1295 216.166 98.0124C226.463 97.8684 236.752 97.8323 247.049 97.8143C257.347 97.8323 267.635 97.8684 277.933 98.0124C288.23 98.1295 298.519 98.3636 308.816 98.7148C298.519 99.0661 288.23 99.3002 277.933 99.4173C267.635 99.5613 257.347 99.5974 247.049 99.6154C236.752 99.5974 226.463 99.5613 216.166 99.4173C205.868 99.2912 195.571 99.057 185.282 98.7148Z" fill="white"/>
<path d="M225.877 146.541C236.472 146.19 247.068 145.956 257.654 145.839C268.249 145.695 278.844 145.659 289.43 145.641C300.025 145.659 310.62 145.695 321.206 145.839C331.801 145.956 342.396 146.19 352.982 146.541C342.387 146.893 331.792 147.127 321.206 147.244C310.611 147.388 300.016 147.424 289.43 147.442C278.835 147.424 268.24 147.388 257.654 147.244C247.068 147.127 236.472 146.893 225.877 146.541Z" fill="white"/>
<path d="M289.439 164.552C294.732 164.201 300.034 163.966 305.327 163.849C310.62 163.705 315.922 163.669 321.215 163.651C326.508 163.669 331.81 163.705 337.103 163.849C342.396 163.966 347.698 164.201 352.991 164.552C347.698 164.903 342.396 165.137 337.103 165.254C331.81 165.398 326.508 165.434 321.215 165.452C315.922 165.434 310.62 165.398 305.327 165.254C300.034 165.137 294.732 164.903 289.439 164.552Z" fill="white"/>
<path d="M218.195 187.065C228.7 186.714 239.214 186.479 249.718 186.362C260.223 186.218 270.737 186.182 281.242 186.164C291.747 186.182 302.261 186.218 312.766 186.362C323.271 186.479 333.785 186.714 344.289 187.065C333.785 187.416 323.271 187.65 312.766 187.767C302.261 187.911 291.747 187.947 281.242 187.965C270.737 187.947 260.223 187.911 249.718 187.767C239.205 187.65 228.7 187.416 218.195 187.065Z" fill="white"/>
</g>
<defs>
<clipPath id="clip0_486_375">
<rect width="353" height="318" fill="white"/>
</clipPath>
</defs>
</svg>
